<?xml version="1.0" encoding="UTF-8"?>
<svg width="23px" height="22px" viewBox="0 0 23 22" version="1.1" xmlns="http://www.w3.org/2000/svg" xmlns:xlink="http://www.w3.org/1999/xlink">
    <!-- Generator: Sketch 48.2 (47327) - http://www.bohemiancoding.com/sketch -->
    <title>address</title>
    <desc>Created with Sketch.</desc>
    <defs></defs>
    <g id="Symbols" stroke="none" stroke-width="1" fill="none" fill-rule="evenodd">
        <g id="address" fill="#00A5EC" fill-rule="nonzero">
            <path d="M21.7967391,4.125 L18.448913,1.7623913 C18.368558,1.70525715 18.2725085,1.67435427 18.173913,1.67391304 L11.4782609,1.67391304 L11.4782609,0.597826087 C11.4782609,0.333689902 11.2641362,0.119565217 11,0.119565217 C10.7358638,0.119565217 10.5217391,0.333689902 10.5217391,0.597826087 L10.5217391,1.67391304 L6.2173913,1.67391304 C4.6325742,1.67391304 3.34782609,2.95866115 3.34782609,4.54347826 C3.34782609,6.12829537 4.6325742,7.41304348 6.2173913,7.41304348 L10.5217391,7.41304348 L10.5217391,9.32608696 L3.82608696,9.32608696 C3.72749155,9.32652818 3.63144203,9.35743107 3.55108696,9.41456522 L0.20326087,11.7771739 C0.0780568208,11.8670067 0.00380752604,12.0116636 0.00380752604,12.1657609 C0.00380752604,12.3198582 0.0780568208,12.4645151 0.20326087,12.5543478 L3.55108696,14.9743478 C3.63115851,15.0323324 3.72723165,15.0640783 3.82608696,15.0652174 L10.5217391,15.0652174 L10.5217391,21.4021739 C10.5217391,21.6663101 10.7358638,21.8804348 11,21.8804348 C11.2641362,21.8804348 11.4782609,21.6663101 11.4782609,21.4021739 L11.4782609,15.0652174 L15.7826087,15.0652174 C17.3674258,15.0652174 18.6521739,13.7804693 18.6521739,12.1956522 C18.6521739,10.6108351 17.3674258,9.32608696 15.7826087,9.32608696 L11.4782609,9.32608696 L11.4782609,7.41304348 L18.173913,7.41304348 C18.2744045,7.41289965 18.3722976,7.38110533 18.4536957,7.32217391 L21.8015217,4.90217391 C21.9267258,4.81234117 22.0009751,4.66768425 22.0009751,4.51358696 C22.0009751,4.35948967 21.9267258,4.21483274 21.8015217,4.125 L21.7967391,4.125 Z M17.6956522,12.1956522 C17.6956522,13.2521969 16.8391534,14.1086957 15.7826087,14.1086957 L3.98152174,14.1086957 L1.30086957,12.1717391 L3.97673913,10.2826087 L15.7826087,10.2826087 C16.8391534,10.2826087 17.6956522,11.1391074 17.6956522,12.1956522 Z M18.0184783,6.45652174 L6.2173913,6.45652174 C5.16084657,6.45652174 4.30434783,5.600023 4.30434783,4.54347826 C4.30434783,3.48693352 5.16084657,2.63043478 6.2173913,2.63043478 L18.0232609,2.63043478 L20.6991304,4.51956522 L18.0184783,6.45652174 Z" id="Shape"></path>
        </g>
    </g>
</svg>