<?xml version="1.0" encoding="UTF-8"?>
<svg width="17px" height="18px" viewBox="0 0 17 18" version="1.1" xmlns="http://www.w3.org/2000/svg" xmlns:xlink="http://www.w3.org/1999/xlink">
    <!-- Generator: Sketch 48.2 (47327) - http://www.bohemiancoding.com/sketch -->
    <title>attachment</title>
    <desc>Created with Sketch.</desc>
    <defs></defs>
    <g id="Symbols" stroke="none" stroke-width="1" fill="none" fill-rule="evenodd" opacity="0.400000006">
        <g id="attachment" fill="#323C47" fill-rule="nonzero">
            <path d="M2.09625,6.79875 L7.53375,1.36125 C9.3320483,-0.433923209 12.2375947,-0.455618845 14.0625,1.3125 C15.9375,3.12 15.883125,6.1875 14.04375,8.0175 L8.5875,13.47375 C8.04685172,14.0137914 7.3084743,14.3086212 6.54455075,14.2894876 C5.7806272,14.2703541 5.05793518,13.9389299 4.545,13.3725 C3.54683724,12.2389921 3.60942424,10.5227909 4.6875,9.465 L9.51,4.64625 C9.73009732,4.35278691 10.1011334,4.21465189 10.4595556,4.29273481 C10.8179778,4.37081774 11.0979323,4.65077223 11.1760152,5.00919443 C11.2540981,5.36761663 11.1159631,5.73865268 10.8225,5.95875 L5.9475,10.83375 C5.76371035,11.0207491 5.66662886,11.2761687 5.6798112,11.5380342 C5.69299354,11.7998996 5.81523496,12.0442785 6.016875,12.211875 C6.40317852,12.5106717 6.95240194,12.4710953 7.291875,12.12 L12.796875,6.620625 C13.3369164,6.07997672 13.6317462,5.3415993 13.6126126,4.57767575 C13.5934791,3.8137522 13.2620549,3.09106018 12.695625,2.578125 C11.5603071,1.58772686 9.84945148,1.65517406 8.795625,2.731875 L3.320625,8.206875 C1.53069585,10.0017877 1.50569256,12.8988357 3.264375,14.724375 C5.071875,16.599375 8.139375,16.545 9.97125,14.705625 L14.77125,9.905625 C15.1357908,9.54830355 15.7192092,9.54830355 16.08375,9.905625 C16.4410714,10.2701658 16.4410714,10.8535842 16.08375,11.218125 L11.20875,16.093125 C8.69582218,18.599959 4.63894104,18.634968 2.083125,16.171875 C-0.534375,13.644375 -0.478125,9.375 2.09625,6.79875 Z" id="Shape"></path>
        </g>
    </g>
</svg>