<?xml version="1.0" encoding="UTF-8"?>
<svg width="57px" height="22px" viewBox="0 0 57 22" version="1.1" xmlns="http://www.w3.org/2000/svg" xmlns:xlink="http://www.w3.org/1999/xlink">
    <!-- Generator: Sketch 48.2 (47327) - http://www.bohemiancoding.com/sketch -->
    <title>automobile</title>
    <desc>Created with Sketch.</desc>
    <defs></defs>
    <g id="Symbols" stroke="none" stroke-width="1" fill="none" fill-rule="evenodd">
        <g id="automobile" fill-rule="nonzero">
            <g id="automobile-(1)" transform="translate(0.931945, 0.000000)">
                <path d="M52.9291961,9.23277451 C51.1360882,8.12835294 45.3523529,6.7162549 37.2358627,6.7162549 L32.948451,1.7144902 C32.0441863,0.659568627 30.7239706,0.0523039216 29.3345196,0.0523039216 L16.5008627,0.0523039216 C15.1372941,0.0523039216 13.8188039,0.540078431 12.7835098,1.42741176 L7.72415686,5.76421569 L2.32779412,6.53507843 C1.56146078,6.64453922 0.937803922,7.20704902 0.75004902,7.95806863 L0.108382353,10.5240882 L14.3884314,17.1879314 L54.3718137,17.1879314 L54.3718137,11.8062353 C54.371598,10.7537941 53.8252647,9.78482353 52.9291961,9.23277451 Z" id="Shape" fill="#FFB47D"></path>
                <path d="M54.371598,12.427951 C54.371598,10.5239804 51.5156961,8.6200098 38.187902,8.6200098 L1.06020588,8.6200098 C0.534470588,8.6200098 0.10827451,9.04631373 0.10827451,9.57194118 L0.10827451,15.2838529 L18.1962647,18.1397549 L54.3717059,18.1397549 L54.3717059,12.427951 L54.371598,12.427951 Z" id="Shape" fill="#FF9164"></path>
                <path d="M54.371598,16.2358922 L9.73219608,16.2358922 L1.2665098,14.3547843 C0.758029412,14.2431667 0.244803922,14.5634608 0.130382353,15.077549 C0.0169313725,15.5907745 0.340568627,16.0992549 0.853686275,16.2131373 L9.4215,18.1171078 C9.48933333,18.1324216 9.55813725,18.1398627 9.62780392,18.1398627 L54.3712745,18.1398627 C54.8974412,18.1398627 55.3233137,17.7135588 55.3233137,17.1879314 C55.3234216,16.6621961 54.8977647,16.2358922 54.371598,16.2358922 Z" id="Shape" fill="#FF7D5A"></path>
                <circle id="Oval" fill="#EDEDEE" cx="45.8031373" cy="16.2356765" r="4.75987255"></circle>
                <path d="M45.8036765,21.9478039 C42.653902,21.9478039 40.0917647,19.3856667 40.0917647,16.2358922 C40.0917647,13.0861176 42.653902,10.5239804 45.8036765,10.5239804 C48.953451,10.5239804 51.5155882,13.0861176 51.5155882,16.2358922 C51.5155882,19.3856667 48.953451,21.9478039 45.8036765,21.9478039 Z M45.8036765,12.427951 C43.7036471,12.427951 41.9957353,14.1358627 41.9957353,16.2358922 C41.9957353,18.3359216 43.7036471,20.0438333 45.8036765,20.0438333 C47.9037059,20.0438333 49.6116176,18.3360294 49.6116176,16.2358922 C49.6116176,14.1358627 47.9038137,12.427951 45.8036765,12.427951 Z" id="Shape" fill="#504B5A"></path>
                <circle id="Oval" fill="#DCDBDE" cx="45.8031373" cy="16.2356765" r="1.90397059"></circle>
                <circle id="Oval" fill="#EDEDEE" cx="9.62769608" cy="16.2356765" r="4.75987255"></circle>
                <path d="M9.62812745,21.9478039 C6.47835294,21.9478039 3.91621569,19.3856667 3.91621569,16.2358922 C3.91621569,13.0861176 6.47835294,10.5239804 9.62812745,10.5239804 C12.777902,10.5239804 15.3400392,13.0861176 15.3400392,16.2358922 C15.3399314,19.3856667 12.7777941,21.9478039 9.62812745,21.9478039 Z M9.62812745,12.427951 C7.52809804,12.427951 5.82018627,14.1358627 5.82018627,16.2358922 C5.82018627,18.3359216 7.52809804,20.0438333 9.62812745,20.0438333 C11.7281569,20.0438333 13.4360686,18.3360294 13.4360686,16.2358922 C13.4360686,14.1358627 11.7281569,12.427951 9.62812745,12.427951 Z" id="Shape" fill="#504B5A"></path>
                <circle id="Oval" fill="#DCDBDE" cx="9.62769608" cy="16.2356765" r="1.90397059"></circle>
                <g id="Group" transform="translate(17.147059, 12.401961)" fill="#FF7D5A">
                    <path d="M21.0407353,1.92996078 L1.04909804,1.92996078 C0.523362745,1.92996078 0.0971666667,1.50365686 0.0971666667,0.978029412 C0.0971666667,0.452294118 0.523470588,0.0260980392 1.04909804,0.0260980392 L21.0407353,0.0260980392 C21.5664706,0.0260980392 21.9926667,0.452294118 21.9926667,0.978029412 C21.9927745,1.50387255 21.5664706,1.92996078 21.0407353,1.92996078 Z" id="Shape"></path>
                    <path d="M37.2245392,1.92996078 L36.2726078,1.92996078 C35.7468725,1.92996078 35.3205686,1.50365686 35.3205686,0.978029412 C35.3205686,0.452294118 35.7468725,0.0260980392 36.2726078,0.0260980392 L37.2245392,0.0260980392 C37.7502745,0.0260980392 38.1764706,0.452294118 38.1764706,0.978029412 C38.1764706,1.50387255 37.7502745,1.92996078 37.2245392,1.92996078 Z" id="Shape"></path>
                </g>
                <path d="M7.72415686,5.76410784 L12.7835098,1.42730392 C13.8188039,0.539970588 15.1372941,0.0521960784 16.5008627,0.0521960784 L29.3345196,0.0521960784 C30.7240784,0.0521960784 32.0440784,0.659352941 32.948451,1.71438235 L37.2358627,6.71614706 L14.6964314,6.71614706 C13.8574118,6.71614706 13.019902,6.64680392 12.1922059,6.50887255 L7.72415686,5.76410784 Z" id="Shape" fill="#FF9164"></path>
                <path d="M28.2866078,1.6892549 C27.924902,1.25518627 27.3890294,1.00423529 26.8239314,1.00423529 L18.0321275,1.00423529 C17.5272059,1.00423529 17.0428824,1.20482353 16.6859216,1.56189216 L13.8300196,4.41779412 C13.5775588,4.6702549 13.4356373,5.01265686 13.4356373,5.36972549 C13.4356373,6.11319608 14.0383725,6.71603922 14.781951,6.71603922 L31.4595686,6.71603922 C31.8631176,6.71603922 32.083549,6.24530392 31.8252647,5.9352549 L28.2866078,1.6892549 Z" id="Shape" fill="#625D6B"></path>
                <polygon id="Shape" fill="#504B5A" points="20.0999118 6.71603922 17.243902 6.71603922 19.1478725 1.00423529 21.0518431 1.00423529"></polygon>
                <path d="M53.3496765,9.57204902 L52.4674118,9.57204902 C51.9416765,9.57204902 51.5154804,9.9982451 51.5154804,10.5239804 C51.5154804,11.0497157 51.9417843,11.4759118 52.4674118,11.4759118 L54.3288922,11.4759118 C54.2462843,10.7355686 53.9015098,10.0657549 53.3496765,9.57204902 Z" id="Shape" fill="#EDEDEE"></path>
                <path d="M32.948451,1.71438235 C32.7203627,1.44822549 32.4653137,1.21086275 32.1896667,1.00423529 L30.6360784,1.00423529 C30.2325294,1.00423529 30.012098,1.47486275 30.2703824,1.78501961 L33.8090392,6.03123529 C34.1707451,6.46530392 34.7066176,6.7162549 35.2716078,6.7162549 L37.2357549,6.7162549 L32.948451,1.71438235 Z" id="Shape" fill="#625D6B"></path>
                <path d="M0.10827451,9.57204902 L0.10827451,10.5239804 L2.0122451,10.5239804 C2.53798039,10.5239804 2.96417647,10.0977843 2.96417647,9.57204902 C2.96417647,9.04631373 2.53787255,8.62011765 2.0122451,8.62011765 L1.06020588,8.62011765 C0.534362745,8.6200098 0.10827451,9.04631373 0.10827451,9.57204902 Z" id="Shape" fill="#FF6464"></path>
            </g>
        </g>
    </g>
</svg>