<?xml version="1.0" encoding="UTF-8"?>
<svg width="22px" height="24px" viewBox="0 0 22 24" version="1.1" xmlns="http://www.w3.org/2000/svg" xmlns:xlink="http://www.w3.org/1999/xlink">
    <!-- Generator: Sketch 48.2 (47327) - http://www.bohemiancoding.com/sketch -->
    <title>bell</title>
    <desc>Created with Sketch.</desc>
    <defs></defs>
    <g id="Symbols" stroke="none" stroke-width="1" fill="none" fill-rule="evenodd">
        <g id="bell" fill="#00A5EC">
            <g id="notification-icon">
                <g id="Page-1">
                    <path d="M16.9937,12.5121 L16.9937,17.6341 L3.8317,17.6341 L3.8317,12.5121 C3.8317,8.8841 6.7847,5.9311 10.4127,5.9311 C14.0417,5.9311 16.9937,8.8841 16.9937,12.5121 Z M10.4127,3.7001 C10.0097,3.7001 9.6817,3.3721 9.6817,2.9691 C9.6817,2.5651 10.0097,2.2371 10.4127,2.2371 C10.8157,2.2371 11.1437,2.5651 11.1437,2.9691 C11.1437,3.3721 10.8157,3.7001 10.4127,3.7001 Z M11.7197,19.8651 L11.7197,20.0931 C11.7037,20.4211 11.5607,20.7241 11.3187,20.9471 C11.0737,21.1731 10.7557,21.2811 10.4237,21.2751 C9.7827,21.2481 9.2587,20.7241 9.2317,20.1041 L9.2317,19.8651 L11.7197,19.8651 Z M19.2247,17.6341 L19.2247,12.5121 C19.2247,8.6581 16.7517,5.3011 13.1357,4.1311 C13.3487,3.6351 13.4227,3.0881 13.3447,2.5391 C13.2307,1.7561 12.8197,1.0631 12.1867,0.5891 C10.8787,-0.3889 9.0177,-0.1219 8.0387,1.1861 C7.3987,2.0411 7.2827,3.1741 7.6897,4.1301 C4.0737,5.3011 1.6007,8.6591 1.6007,12.5121 L1.6007,17.6341 L-0.0003,17.6341 L-0.0003,19.8651 L6.9977,19.8651 L6.9977,20.1201 C7.0277,21.0481 7.4167,21.9091 8.0947,22.5441 C8.7437,23.1531 9.5837,23.4851 10.4697,23.4851 C10.5077,23.4851 10.5457,23.4841 10.5847,23.4831 C12.4117,23.4251 13.8897,21.9471 13.9487,20.1041 L13.9487,19.8651 L21.3187,19.8651 L21.3187,17.6341 L19.2247,17.6341 Z" id="Fill-1"></path>
                </g>
            </g>
        </g>
    </g>
</svg>