<?xml version="1.0" encoding="UTF-8"?>
<svg width="21px" height="20px" viewBox="0 0 21 20" version="1.1" xmlns="http://www.w3.org/2000/svg" xmlns:xlink="http://www.w3.org/1999/xlink">
    <!-- Generator: Sketch 48.2 (47327) - http://www.bohemiancoding.com/sketch -->
    <title>call</title>
    <desc>Created with Sketch.</desc>
    <defs></defs>
    <g id="Symbols" stroke="none" stroke-width="1" fill="none" fill-rule="evenodd">
        <g id="call" fill="#00A5EC" fill-rule="nonzero">
            <path d="M5.04545455,15.4545455 L5.18181818,15.5909091 C8.88636364,19.1363636 12.1590909,19.9545455 14.4090909,19.9545455 C16.1818182,19.9545455 17.3181818,19.4545455 17.5227273,19.3409091 C18.6136364,18.9318182 19.5,17.8863636 19.5227273,17.8409091 C19.9090909,17.4090909 20.0681818,16.9545455 20.0227273,16.4772727 C19.9545455,15.8409091 19.5227273,15.4545455 19.4090909,15.3409091 L16.8181818,12.8863636 C16.4545455,12.5227273 16.0681818,12.3409091 15.6590909,12.3636364 C15.0909091,12.3636364 14.7045455,12.7272727 14.6363636,12.8181818 L13.0909091,14.2954545 C11.5909091,13.6136364 10.2727273,12.7272727 9.02272727,11.5227273 L8.90909091,11.4318182 C7.65909091,10.25 6.70454545,8.95454545 5.95454545,7.52272727 L7.36363636,5.90909091 C7.43181818,5.81818182 7.77272727,5.43181818 7.77272727,4.86363636 C7.75,4.45454545 7.56818182,4.06818182 7.20454545,3.72727273 L4.59090909,1.22727273 C4.5,1.11363636 4.06818182,0.704545455 3.43181818,0.659090909 C2.95454545,0.636363636 2.52272727,0.818181818 2.09090909,1.22727273 C2.04545455,1.27272727 1.04545455,2.20454545 0.681818182,3.29545455 C0.477272727,3.77272727 -1.59090909,9.15909091 5.04545455,15.4545455 Z M1.52272727,3.65909091 L1.54545455,3.61363636 C1.81818182,2.72727273 2.70454545,1.90909091 2.70454545,1.90909091 C2.93181818,1.70454545 3.13636364,1.59090909 3.34090909,1.59090909 C3.34090909,1.59090909 3.36363636,1.59090909 3.36363636,1.59090909 C3.65909091,1.61363636 3.88636364,1.86363636 3.88636364,1.86363636 L6.54545455,4.40909091 C6.72727273,4.56818182 6.81818182,4.75 6.84090909,4.90909091 C6.84090909,5.13636364 6.68181818,5.31818182 6.68181818,5.31818182 L4.84090909,7.40909091 L4.97727273,7.68181818 C5.77272727,9.34090909 6.84090909,10.7954545 8.25,12.1363636 L8.36363636,12.2272727 C9.77272727,13.5681818 11.2727273,14.5681818 12.9545455,15.2954545 L13.2272727,15.4090909 L15.2045455,13.5 L15.2272727,13.4772727 C15.2272727,13.4772727 15.4090909,13.3181818 15.6136364,13.2954545 C15.7727273,13.2954545 15.9545455,13.3863636 16.1363636,13.5681818 L18.7727273,16.0681818 L18.8181818,16.0909091 C18.8181818,16.0909091 19.0681818,16.3181818 19.1136364,16.6136364 C19.1363636,16.8181818 19.0454545,17.0454545 18.8181818,17.2954545 C18.8181818,17.2954545 18.0454545,18.2272727 17.1818182,18.5454545 L17.1363636,18.5681818 C16.9318182,18.6363636 12.0909091,20.9545455 5.81818182,14.9318182 L5.68181818,14.7954545 C-0.636363636,8.81818182 1.43181818,3.86363636 1.52272727,3.65909091 Z" id="Shape"></path>
        </g>
    </g>
</svg>