<?xml version="1.0" encoding="UTF-8"?>
<svg width="19px" height="17px" viewBox="0 0 19 17" version="1.1" xmlns="http://www.w3.org/2000/svg" xmlns:xlink="http://www.w3.org/1999/xlink">
    <!-- Generator: Sketch 48.2 (47327) - http://www.bohemiancoding.com/sketch -->
    <title>comments</title>
    <desc>Created with Sketch.</desc>
    <defs></defs>
    <g id="Symbols" stroke="none" stroke-width="1" fill="none" fill-rule="evenodd" opacity="0.400000006">
        <g id="comments">
            <path d="M17.3804762,0.1275 L0.833809524,0.1275 C0.386721869,0.1275 0.0242857143,0.489936155 0.0242857143,0.93702381 L0.0242857143,16.0629762 C0.0238996375,16.3870536 0.216827476,16.6801297 0.514656274,16.8078965 C0.812485072,16.9356633 1.15781071,16.8734948 1.39238095,16.649881 L5.39952381,12.8329762 L17.3804762,12.8329762 C17.8275638,12.8329762 18.19,12.47054 18.19,12.0234524 L18.19,0.93702381 C18.19,0.489936155 17.8275638,0.1275 17.3804762,0.1275 Z M16.5709524,11.2139286 L5.07571429,11.2139286 C4.86784755,11.2136687 4.66784619,11.2933794 4.51714286,11.4365476 L1.64333333,14.1666667 L1.64333333,1.74654762 L16.5709524,1.74654762 L16.5709524,11.2139286 Z" id="Shape" fill="#323C47" fill-rule="nonzero"></path>
            <rect id="Rectangle-path" fill="#24272C" x="4.82678571" y="4.42404762" width="4.80654762" height="1.61904762"></rect>
            <rect id="Rectangle-path" fill="#24272C" x="4.82678571" y="7.25738095" width="8.85416667" height="1.61904762"></rect>
        </g>
    </g>
</svg>