<?xml version="1.0" encoding="UTF-8"?>
<svg width="16px" height="15px" viewBox="0 0 16 15" version="1.1" xmlns="http://www.w3.org/2000/svg" xmlns:xlink="http://www.w3.org/1999/xlink">
    <!-- Generator: Sketch 48.2 (47327) - http://www.bohemiancoding.com/sketch -->
    <title>companies</title>
    <desc>Created with Sketch.</desc>
    <defs>
        <linearGradient x1="50%" y1="100%" x2="50%" y2="-2.22044605e-14%" id="linearGradient-1">
            <stop stop-color="#3A3A42" offset="0%"></stop>
            <stop stop-color="#65656A" offset="100%"></stop>
        </linearGradient>
    </defs>
    <g id="Symbols" stroke="none" stroke-width="1" fill="none" fill-rule="evenodd">
        <g id="companies" fill="url(#linearGradient-1)" fill-rule="nonzero">
            <path d="M15,13.9396552 L14.3017241,13.9396552 L14.3017241,2.63793103 C14.3017241,2.35344828 14.0689655,2.12068966 13.7844828,2.12068966 L8.56034483,2.12068966 L8.56034483,0.517241379 C8.56034483,0.232758621 8.32758621,0 8.04310345,0 L1.73275862,0 C1.44827586,0 1.21551724,0.232758621 1.21551724,0.517241379 L1.21551724,13.9396552 L0.517241379,13.9396552 C0.232758621,13.9396552 0,14.1724138 0,14.4568966 C0,14.7413793 0.232758621,14.9741379 0.517241379,14.9741379 L1.73275862,14.9741379 L3.77586207,14.9741379 L5.97413793,14.9741379 L8.01724138,14.9741379 L13.7844828,14.9741379 L15,14.9741379 C15.2844828,14.9741379 15.5172414,14.7413793 15.5172414,14.4568966 C15.5172414,14.1724138 15.2844828,13.9396552 15,13.9396552 Z M5.45689655,13.9396552 L4.29310345,13.9396552 L4.29310345,9.56896552 L5.45689655,9.56896552 L5.45689655,13.9396552 Z M7.52586207,2.63793103 L7.52586207,13.9396552 L6.51724138,13.9396552 L6.51724138,9.05172414 C6.51724138,8.76724138 6.28448276,8.53448276 6,8.53448276 L3.80172414,8.53448276 C3.51724138,8.53448276 3.28448276,8.76724138 3.28448276,9.05172414 L3.28448276,13.9655172 L2.27586207,13.9655172 L2.27586207,1.06034483 L7.55172414,1.06034483 L7.55172414,2.63793103 L7.52586207,2.63793103 Z M13.2672414,4.8362069 L10.6293103,4.8362069 C10.3448276,4.8362069 10.112069,5.06896552 10.112069,5.35344828 C10.112069,5.63793103 10.3448276,5.87068966 10.6293103,5.87068966 L13.2672414,5.87068966 L13.2672414,7.24137931 L10.6293103,7.24137931 C10.3448276,7.24137931 10.112069,7.47413793 10.112069,7.75862069 C10.112069,8.04310345 10.3448276,8.27586207 10.6293103,8.27586207 L13.2672414,8.27586207 L13.2672414,9.67241379 L10.6293103,9.67241379 C10.3448276,9.67241379 10.112069,9.90517241 10.112069,10.1896552 C10.112069,10.4741379 10.3448276,10.7068966 10.6293103,10.7068966 L13.2672414,10.7068966 L13.2672414,12.1034483 L10.6293103,12.1034483 C10.3448276,12.1034483 10.112069,12.3362069 10.112069,12.6206897 C10.112069,12.9051724 10.3448276,13.137931 10.6293103,13.137931 L13.2672414,13.137931 L13.2672414,13.9655172 L8.56034483,13.9655172 L8.56034483,3.15517241 L13.2931034,3.15517241 L13.2931034,4.8362069 L13.2672414,4.8362069 Z" id="Shape"></path>
        </g>
    </g>
</svg>