<?xml version="1.0" encoding="UTF-8"?>
<svg width="25px" height="25px" viewBox="0 0 25 25" version="1.1" xmlns="http://www.w3.org/2000/svg" xmlns:xlink="http://www.w3.org/1999/xlink">
    <!-- Generator: Sketch 48.2 (47327) - http://www.bohemiancoding.com/sketch -->
    <title>consumer</title>
    <desc>Created with Sketch.</desc>
    <defs></defs>
    <g id="Symbols" stroke="none" stroke-width="1" fill="none" fill-rule="evenodd" opacity="0.800000012">
        <g id="consumer" fill="#323C47" fill-rule="nonzero" stroke="#323C47" stroke-width="0.3">
            <path d="M12.5,0 C5.60526316,0 0,5.60526316 0,12.5 C0,19.3947368 5.60526316,25 12.5,25 C19.3947368,25 25,19.3947368 25,12.5 C25,5.60526316 19.3947368,0 12.5,0 Z M5.92105263,20.6315789 C7.34210526,18.7368421 9.81578947,17.5 12.5,17.5 C15.1842105,17.5 17.6578947,18.7105263 19.0789474,20.6315789 C17.2894737,22.0789474 14.9736842,22.9736842 12.5,22.9736842 C10,22.9736842 7.71052632,22.1052632 5.92105263,20.6315789 Z M20.5263158,19.2105263 C18.7105263,16.9210526 15.7368421,15.5 12.5,15.5 C9.26315789,15.5 6.28947368,16.9473684 4.47368421,19.2368421 C2.94736842,17.4210526 2.02631579,15.0789474 2.02631579,12.5263158 C2.02631579,6.71052632 6.71052632,2.02631579 12.5,2.02631579 C18.2894737,2.02631579 22.9736842,6.71052632 22.9736842,12.5 C22.9736842,15.0526316 22.0526316,17.3947368 20.5263158,19.2105263 Z M12.5,5 C9.73404255,5 7.5,7.23404255 7.5,10 C7.5,12.7659574 9.73404255,15 12.5,15 C15.2659574,15 17.5,12.7659574 17.5,10 C17.5,7.23404255 15.2659574,5 12.5,5 Z M12.5,12.9521277 C10.8776596,12.9521277 9.54787234,11.6223404 9.54787234,10 C9.54787234,8.37765957 10.8776596,7.04787234 12.5,7.04787234 C14.1223404,7.04787234 15.4521277,8.37765957 15.4521277,10 C15.4521277,11.6223404 14.1223404,12.9521277 12.5,12.9521277 Z" id="Shape"></path>
        </g>
    </g>
</svg>