<?xml version="1.0" encoding="UTF-8"?>
<svg width="23px" height="23px" viewBox="0 0 23 23" version="1.1" xmlns="http://www.w3.org/2000/svg" xmlns:xlink="http://www.w3.org/1999/xlink">
    <!-- Generator: Sketch 48.2 (47327) - http://www.bohemiancoding.com/sketch -->
    <title>contact</title>
    <desc>Created with Sketch.</desc>
    <defs></defs>
    <g id="Symbols" stroke="none" stroke-width="1" fill="none" fill-rule="evenodd" opacity="0.800000012">
        <g id="contact" fill="#323C47" stroke="#323C47" stroke-width="0.3">
            <path d="M20.2581354,10.0622908 C19.8225493,10.0622908 19.4691988,10.4126522 19.4691988,10.8455829 L19.4691988,14.9948738 C19.4691988,15.4263167 19.8225493,15.7777939 20.2581354,15.7777939 C20.6937216,15.7777939 21.0474475,15.4263167 21.0474475,14.9948738 L21.0474475,10.8455829 C21.0474475,10.4126522 20.6937216,10.0622908 20.2581354,10.0622908 Z M20.2581354,17.2830091 C19.8225493,17.2830091 19.4691988,17.6348583 19.4691988,18.0677889 L19.4691988,22.2170798 C19.4691988,22.6485228 19.8225493,23 20.2581354,23 C20.6937216,23 21.0474475,22.6485228 21.0474475,22.2170798 L21.0474475,18.0677889 C21.0474475,17.6348583 20.6937216,17.2830091 20.2581354,17.2830091 Z M19.8784995,1.13686838e-13 L2.23688507,1.13686838e-13 C1.0063542,1.13686838e-13 0,0.999385501 0,2.21969954 L0,20.777325 C0,21.997639 1.0063542,22.9973965 2.23688507,22.9973965 L15.6627015,22.9973965 C16.8947344,22.9973965 17.9010886,21.997639 17.9010886,20.777325 L17.9010886,10.5722117 C17.9010886,9.35040994 18.9761603,8.35251217 20.0895335,8.35251217 C21.2044088,8.35251217 22.1153846,7.35424247 22.1153846,6.13244069 L22.1153846,2.21969954 C22.1153846,0.999385501 21.1090304,1.13686838e-13 19.8784995,1.13686838e-13 Z M20.5367603,6.13244069 C20.5367603,6.50734973 20.3005675,6.78629991 20.0910355,6.78629991 C18.103486,6.78629991 16.3228399,8.48454859 16.3228399,10.5722117 L16.3228399,20.777325 C16.3228399,21.1317777 16.0205581,21.4311842 15.6642036,21.4311842 L2.23688507,21.4311842 C1.88053054,21.4311842 1.57824877,21.1317777 1.57824877,20.777325 L1.57824877,2.21969954 C1.57824877,1.86524685 1.88053054,1.56621226 2.23688507,1.56621226 L19.8784995,1.56621226 C20.2348541,1.56621226 20.5367603,1.86524685 20.5367603,2.21969954 L20.5367603,6.13244069 Z M12.9241414,14.1029771 L11.159642,13.4751532 C11.15814,13.4736655 11.15814,13.4736655 11.15814,13.4736655 C11.0334722,13.3996507 10.9088045,13.3271237 10.7841367,13.2527369 C10.7120397,13.2092207 10.6403182,13.1642168 10.5685967,13.1177251 C10.5625886,13.1132619 10.5374297,13.0961529 10.5096423,13.0756966 C11.2313635,12.5337894 11.7123858,11.5619269 11.7123858,10.4502175 C11.7123858,8.74453015 10.5802373,7.36279694 9.18523513,7.36279694 C7.78873092,7.36279694 6.65658244,8.74453015 6.65658244,10.4502175 C6.65658244,11.555976 7.13460069,12.5233752 7.84881177,13.0697456 C7.73616018,13.2006662 7.62163106,13.3051796 7.50710195,13.3936998 C7.46917591,13.3910962 7.42937235,13.3951875 7.39144632,13.4096929 L5.44482684,14.1029771 C5.04153415,14.2465434 4.7261097,14.691376 4.7261097,15.116868 L4.7261097,15.3188279 C4.7261097,15.7822572 5.10612106,16.1586539 5.57249864,16.1586539 L12.7949676,16.1586539 C13.2628472,16.1586539 13.6428585,15.7822572 13.6428585,15.3188279 L13.6428585,15.116868 C13.6428585,14.691376 13.3274341,14.2450557 12.9241414,14.1029771 Z" id="contacts-book"></path>
        </g>
    </g>
</svg>