<?xml version="1.0" encoding="UTF-8"?>
<svg width="14px" height="14px" viewBox="0 0 14 14" version="1.1" xmlns="http://www.w3.org/2000/svg" xmlns:xlink="http://www.w3.org/1999/xlink">
    <!-- Generator: Sketch 48.2 (47327) - http://www.bohemiancoding.com/sketch -->
    <title>contacts1</title>
    <desc>Created with Sketch.</desc>
    <defs>
        <linearGradient x1="50%" y1="100%" x2="50%" y2="-2.22044605e-14%" id="linearGradient-1">
            <stop stop-color="#3A3A42" offset="0%"></stop>
            <stop stop-color="#65656A" offset="100%"></stop>
        </linearGradient>
    </defs>
    <g id="Symbols" stroke="none" stroke-width="1" fill="none" fill-rule="evenodd">
        <g id="contacts1" fill="url(#linearGradient-1)">
            <path d="M12.3310389,6.12487265 C12.0658995,6.12487265 11.8508166,6.33813613 11.8508166,6.60165915 L11.8508166,9.12731448 C11.8508166,9.38993192 12.0658995,9.60387458 12.3310389,9.60387458 C12.5961783,9.60387458 12.8114898,9.38993192 12.8114898,9.12731448 L12.8114898,6.60165915 C12.8114898,6.33813613 12.5961783,6.12487265 12.3310389,6.12487265 Z M12.3310389,10.5200925 C12.0658995,10.5200925 11.8508166,10.7342616 11.8508166,10.9977846 L11.8508166,13.5234399 C11.8508166,13.7860573 12.0658995,14 12.3310389,14 C12.5961783,14 12.8114898,13.7860573 12.8114898,13.5234399 L12.8114898,10.9977846 C12.8114898,10.7342616 12.5961783,10.5200925 12.3310389,10.5200925 Z M12.0999562,1.13686838e-13 L1.36158222,1.13686838e-13 C0.612563428,1.13686838e-13 0,0.608321609 0,1.35112146 L0,12.6470674 C0,13.3898672 0.612563428,13.9984152 1.36158222,13.9984152 L9.53381833,13.9984152 C10.2837514,13.9984152 10.8963148,13.3898672 10.8963148,12.6470674 L10.8963148,6.4352593 C10.8963148,5.69155387 11.5507063,5.08413784 12.2284117,5.08413784 C12.9070314,5.08413784 13.4615385,4.47649542 13.4615385,3.73278999 L13.4615385,1.35112146 C13.4615385,0.608321609 12.848975,1.13686838e-13 12.0999562,1.13686838e-13 Z M12.5006367,3.73278999 C12.5006367,3.96099549 12.3568672,4.13079125 12.229326,4.13079125 C11.0195132,4.13079125 9.93564166,5.16450783 9.93564166,6.4352593 L9.93564166,12.6470674 C9.93564166,12.8628212 9.75164406,13.0450686 9.53473261,13.0450686 L1.36158222,13.0450686 C1.14467076,13.0450686 0.960673167,12.8628212 0.960673167,12.6470674 L0.960673167,1.35112146 C0.960673167,1.13536765 1.14467076,0.953346594 1.36158222,0.953346594 L12.0999562,0.953346594 C12.3168677,0.953346594 12.5006367,1.13536765 12.5006367,1.35112146 L12.5006367,3.73278999 Z M7.86686868,8.58442083 L6.79282556,8.20226718 C6.79191129,8.2013616 6.79191129,8.2013616 6.79191129,8.2013616 C6.71602657,8.15630913 6.64014184,8.11216223 6.56425712,8.06688336 C6.52037198,8.04039522 6.47671541,8.0130015 6.43305883,7.98470221 C6.42940174,7.98198548 6.41408765,7.97157134 6.39717359,7.95911965 C6.83648214,7.62926309 7.12927831,7.03769466 7.12927831,6.36100196 C7.12927831,5.32275748 6.44014446,4.48170249 5.59101269,4.48170249 C4.74096665,4.48170249 4.05183279,5.32275748 4.05183279,6.36100196 C4.05183279,7.03407235 4.34280042,7.62292404 4.7775376,7.95549734 C4.70896707,8.03518815 4.63925369,8.09880496 4.56954032,8.15268682 C4.5464549,8.15110206 4.52222665,8.15359239 4.49914124,8.16242177 L3.31424243,8.58442083 C3.06875992,8.67180905 2.87676243,8.94257669 2.87676243,9.20157182 L2.87676243,9.32450395 C2.87676243,9.60659131 3.10807369,9.83570239 3.3919557,9.83570239 L7.78824113,9.83570239 C8.07303741,9.83570239 8.30434868,9.60659131 8.30434868,9.32450395 L8.30434868,9.20157182 C8.30434868,8.94257669 8.11235119,8.67090348 7.86686868,8.58442083 Z" id="contacts-book"></path>
        </g>
    </g>
</svg>