<?xml version="1.0" encoding="UTF-8"?>
<svg width="20px" height="20px" viewBox="0 0 20 20" version="1.1" xmlns="http://www.w3.org/2000/svg" xmlns:xlink="http://www.w3.org/1999/xlink">
    <!-- Generator: Sketch 48.2 (47327) - http://www.bohemiancoding.com/sketch -->
    <title>date</title>
    <desc>Created with Sketch.</desc>
    <defs></defs>
    <g id="Symbols" stroke="none" stroke-width="1" fill="none" fill-rule="evenodd">
        <g id="date" fill="#00A5EC" fill-rule="nonzero">
            <path d="M1.52941176,2 C1.23702572,2 1,2.22385763 1,2.5 L1,18.5 C1,18.7761424 1.23702572,19 1.52941176,19 L18.4705882,19 C18.7629743,19 19,18.7761424 19,18.5 L19,2.5 C19,2.22385763 18.7629743,2 18.4705882,2 L1.52941176,2 Z M1.57894737,1 L18.4210526,1 C19.2930812,1 20,1.67157288 20,2.5 L20,18.5 C20,19.3284271 19.2930812,20 18.4210526,20 L1.57894737,20 C0.706918816,20 0,19.3284271 0,18.5 L0,2.5 C0,1.67157288 0.706918816,1 1.57894737,1 Z M0,8 L0,7 L20,7 L20,8 L0,8 Z M14,0 L15,0 L15,4 L14,4 L14,0 Z M5,0 L6,0 L6,4 L5,4 L5,0 Z M5,12 L5,15 L8,15 L8,12 L5,12 Z M4,11 L9,11 L9,16 L4,16 L4,11 Z M12,12 L12,15 L15,15 L15,12 L12,12 Z M11,11 L16,11 L16,16 L11,16 L11,11 Z" id="Rectangle-2"></path>
        </g>
    </g>
</svg>