<?xml version="1.0" encoding="UTF-8"?>
<svg width="21px" height="24px" viewBox="0 0 21 24" version="1.1" xmlns="http://www.w3.org/2000/svg" xmlns:xlink="http://www.w3.org/1999/xlink">
    <!-- Generator: Sketch 48.2 (47327) - http://www.bohemiancoding.com/sketch -->
    <title>dob</title>
    <desc>Created with Sketch.</desc>
    <defs></defs>
    <g id="Symbols" stroke="none" stroke-width="1" fill="none" fill-rule="evenodd">
        <g id="dob" fill="#00A5EC">
            <g id="Group">
                <path d="M15.08204,15.61876 C15.09284,15.61876 15.10444,15.61916 15.11524,15.61996 C15.25644,15.63196 15.38004,15.71716 15.44164,15.84396 C15.84764,16.68036 16.67444,17.19996 17.60004,17.19996 C18.92364,17.19996 20.00004,16.12356 20.00004,14.79996 C20.00004,13.47676 18.92364,12.39996 17.60004,12.39996 C17.42804,12.39996 17.27524,12.28996 17.22084,12.12676 C17.20164,12.06956 15.24524,6.39996 10.40004,6.39996 C5.54444,6.39996 3.59844,12.06916 3.57924,12.12676 C3.52484,12.28996 3.37244,12.39996 3.20004,12.39996 C1.87644,12.39996 0.80004,13.47676 0.80004,14.79996 C0.80004,16.12356 1.87644,17.19996 3.20004,17.19996 C4.12524,17.19996 4.95244,16.68036 5.35804,15.84396 C5.42004,15.71716 5.54364,15.63196 5.68484,15.61996 C5.82364,15.60716 5.96244,15.67156 6.04404,15.78676 C6.49484,16.42116 7.22604,16.79996 8.00004,16.79996 C8.84884,16.79996 9.61764,16.36276 10.05684,15.63076 C10.20164,15.38996 10.59844,15.38996 10.74284,15.63076 C11.18244,16.36276 11.95124,16.79996 12.80004,16.79996 C13.57364,16.79996 14.30524,16.42116 14.75604,15.78676 C14.83124,15.68076 14.95324,15.61876 15.08204,15.61876 M7.6,17.5746064 L7.6,23.2 L10,23.2 L10,16.8987342 C9.44267793,17.3482903 8.74439915,17.59996 8.00004,17.59996 C7.86549254,17.59996 7.73191141,17.5913876 7.6,17.5746064 Z M6.8,17.3646381 C6.42093899,17.2104581 6.07229176,16.9841842 5.77524,16.69676 C5.35049912,17.2779994 4.74962768,17.6926562 4.06426824,17.8829653 L5.1276,23.2 L6.8,23.2 L6.8,17.3646381 Z M13.2,17.5746163 C13.0681157,17.591391 12.9345608,17.59996 12.80004,17.59996 C12.0556452,17.59996 11.3573353,17.3482662 10.8,16.8986696 L10.8,23.2 L13.2,23.2 L13.2,17.5746163 Z M14,17.3646504 L14,23.2 L15.6724,23.2 L16.7358067,17.8829665 C16.0504219,17.692658 15.4494669,17.2780006 15.02444,16.69676 C14.7275809,16.9841919 14.3790229,17.2104702 14,17.3646504 Z M17.527846,17.99917 L16.392,23.6784 C16.3548,23.8656 16.1908,24 16,24 L4.8,24 C4.6092,24 4.4452,23.8656 4.408,23.6784 L3.27215434,17.9991717 C3.24816892,17.9996966 3.22412974,17.99996 3.20004,17.99996 C1.43564,17.99996 4e-05,16.56436 4e-05,14.79996 C4e-05,13.13036 1.28564,11.75476 2.91924,11.61236 C3.38020742,10.4579981 5.49385346,5.8702492 10,5.61137157 L10,4.74977744 C9.72571079,4.67946968 9.47413992,4.53673189 9.2688,4.33112 C8.7604,3.82352 8.6536,3.03312 9.0084,2.40952 L9.1152,2.22512 C9.2264,2.03392 9.3316,1.85352 9.4128,1.66712 L10.0332,0.24032 C10.0964,0.09472 10.2408,-8e-05 10.4,-8e-05 C10.5592,-8e-05 10.7036,0.09472 10.7668,0.24032 L11.3872,1.66712 C11.4684,1.85352 11.5736,2.03392 11.6848,2.22512 L11.7916,2.40992 C12.146,3.03312 12.0396,3.82312 11.5312,4.33112 C11.3258601,4.53673189 11.0742892,4.67946968 10.8,4.74977744 L10.8,5.61136697 C15.3062015,5.8701949 17.4198699,10.4579912 17.88084,11.61236 C19.51444,11.75476 20.80004,13.13036 20.80004,14.79996 C20.80004,16.56436 19.36444,17.99996 17.60004,17.99996 C17.5759236,17.99996 17.5518579,17.999696 17.527846,17.99917 Z" id="Combined-Shape" fill-rule="nonzero"></path>
                <path d="M12.53632,11.00528 C12.36032,11.00528 12.19872,10.88808 12.15072,10.70968 C12.09312,10.49648 12.21912,10.27688 12.43192,10.21888 L14.15872,9.75168 C14.37232,9.69488 14.59192,9.82008 14.64912,10.03328 C14.70712,10.24648 14.58072,10.46608 14.36792,10.52368 L12.64152,10.99128 C12.60632,11.00048 12.57112,11.00528 12.53632,11.00528 Z M7.2,13.29024 C7.1584,13.29024 7.1156,13.28344 7.0736,13.26944 L5.8736,12.86944 C5.664,12.79944 5.5508,12.57304 5.6208,12.36344 C5.6904,12.15424 5.9148,12.03984 6.1264,12.11064 L7.3264,12.51064 C7.536,12.58064 7.6492,12.80704 7.5792,13.01664 C7.5236,13.18424 7.3676,13.29024 7.2,13.29024 Z M10.2504,12.16464 C10.242,12.16464 10.2344,12.16464 10.226,12.16384 C10.006,12.15064 9.8376,11.96144 9.8508,11.74064 L9.8844,11.17624 C9.8972,10.95584 10.0896,10.78384 10.3076,10.80064 C10.5276,10.81384 10.696,11.00344 10.6828,11.22384 L10.6492,11.78864 C10.6368,12.00064 10.4604,12.16464 10.2504,12.16464 Z M7.6,9.87344 C7.4976,9.87344 7.3952,9.83424 7.3172,9.75624 L6.9172,9.35624 C6.7608,9.19984 6.7608,8.94704 6.9172,8.79064 C7.0736,8.63424 7.3264,8.63424 7.4828,8.79064 L7.8828,9.19064 C8.0392,9.34704 8.0392,9.59984 7.8828,9.75624 C7.8048,9.83424 7.7024,9.87344 7.6,9.87344 Z M13.8,14 C13.6976,14 13.5952,13.9608 13.5172,13.8828 L13.1172,13.4828 C12.9608,13.3264 12.9608,13.0736 13.1172,12.9172 C13.2736,12.7608 13.5264,12.7608 13.6828,12.9172 L14.0828,13.3172 C14.2392,13.4736 14.2392,13.7264 14.0828,13.8828 C14.0048,13.9608 13.9024,14 13.8,14 Z M2.8,15.6 C2.6976,15.6 2.5952,15.5608 2.5172,15.4828 C2.3608,15.3264 2.3608,15.0736 2.5172,14.9172 L2.9172,14.5172 C3.0736,14.3608 3.3264,14.3608 3.4828,14.5172 C3.6392,14.6736 3.6392,14.9264 3.4828,15.0828 L3.0828,15.4828 C3.0048,15.5608 2.9024,15.6 2.8,15.6 Z M10.8,9.2914 C10.6976,9.2914 10.5952,9.2522 10.5172,9.1742 L10.1172,8.7742 C9.9608,8.6178 9.9608,8.365 10.1172,8.2086 C10.2736,8.0522 10.5264,8.0522 10.6828,8.2086 L11.0828,8.6086 C11.2392,8.765 11.2392,9.0178 11.0828,9.1742 C11.0048,9.2522 10.9024,9.2914 10.8,9.2914 Z M17.6,15.2 C17.4976,15.2 17.3952,15.1608 17.3172,15.0828 L16.9172,14.6828 C16.7608,14.5264 16.7608,14.2736 16.9172,14.1172 C17.0736,13.9608 17.3264,13.9608 17.4828,14.1172 L17.8828,14.5172 C18.0392,14.6736 18.0392,14.9264 17.8828,15.0828 C17.8048,15.1608 17.7024,15.2 17.6,15.2 Z" id="Combined-Shape"></path>
            </g>
        </g>
    </g>
</svg>