<?xml version="1.0" encoding="UTF-8"?>
<svg width="20px" height="20px" viewBox="0 0 20 20" version="1.1" xmlns="http://www.w3.org/2000/svg" xmlns:xlink="http://www.w3.org/1999/xlink">
    <!-- Generator: Sketch 48.2 (47327) - http://www.bohemiancoding.com/sketch -->
    <title>email</title>
    <desc>Created with Sketch.</desc>
    <defs></defs>
    <g id="Symbols" stroke="none" stroke-width="1" fill="none" fill-rule="evenodd">
        <g id="email" fill="#00A5EC" fill-rule="nonzero">
            <path d="M10.005859,0.8622 C9.9895609,0.862054889 9.97326544,0.8627067 9.957031,0.8641531 C9.8593769,0.870271374 9.76566337,0.904904675 9.6875,0.9637625 L7.179688,2.8426688 L2.5039062,2.8426688 L2.5039062,3.3426688 L2.5039062,6.346575 L0.8066406,7.618059 C0.553239247,7.7164501 0.424851928,7.99924931 0.5175781,8.254778 C0.508564249,8.29252859 0.503976064,8.33120025 0.5039062,8.370012 L0.5039062,19.336809 C0.502619003,19.3622124 0.503271965,19.387677 0.5058594,19.412981 C0.50910391,19.4461022 0.51564675,19.4788167 0.5253906,19.510638 C0.530523942,19.5258857 0.536390166,19.5408768 0.5429688,19.555559 C0.542967529,19.55621 0.542967529,19.556861 0.5429688,19.557512 C0.549437682,19.5721709 0.556607387,19.5865105 0.5644531,19.600481 C0.564451829,19.601132 0.564451829,19.601783 0.5644531,19.602434 C0.604608465,19.6753809 0.662344685,19.7371454 0.7324219,19.782122 C0.733072933,19.7821233 0.733723967,19.7821233 0.734375,19.782122 C0.747630452,19.7912402 0.761318241,19.7997134 0.7753906,19.807512 C0.776041666,19.8075133 0.776692734,19.8075133 0.7773438,19.807512 C0.821629686,19.8300368 0.869025304,19.8458357 0.9179688,19.854388 C0.918619833,19.8543893 0.919270867,19.8543893 0.9199219,19.854388 C0.935445873,19.8570784 0.951088324,19.8590335 0.9667969,19.860247 C0.967447933,19.8602483 0.968098967,19.8602483 0.96875,19.860247 C0.970052062,19.8602521 0.971354138,19.8602521 0.9726562,19.860247 C0.983049926,19.861224 0.993471701,19.8618754 1.0039062,19.8622 C1.00846329,19.8622623 1.01302101,19.8622623 1.0175781,19.8622 L18.898438,19.8622 C19.0624204,19.900393 19.234614,19.853498 19.3565848,19.7374289 C19.4785556,19.6213598 19.533926,19.4517015 19.503906,19.286028 L19.503906,8.370012 C19.5049965,8.3024247 19.4923725,8.23531795 19.466797,8.172747 C19.5075321,7.95507744 19.4002499,7.73653977 19.203125,7.635638 L17.503906,6.364153 L17.503906,2.8426688 L12.798828,2.8426688 L10.285156,0.9618094 C10.2042694,0.901131361 10.1068878,0.866400854 10.005859,0.8622 Z M9.988281,1.9872 L11.130859,2.8426688 L8.847656,2.8426688 L9.988281,1.9872 Z M3.5039062,3.8426688 L5.845703,3.8426688 L7.513672,3.8426688 L12.466797,3.8426688 L14.134766,3.8426688 L16.503906,3.8426688 L16.503906,5.614153 L16.503906,6.864153 L16.503906,9.036028 L9.986328,13.106341 L3.5039062,9.065325 L3.5039062,6.846575 L3.5039062,5.596575 L3.5039062,3.8426688 Z M6.503906,4.83095 L6.503906,5.89345 L13.488281,5.89345 L13.488281,4.83095 L6.503906,4.83095 Z M5.503906,6.8622 L5.503906,7.9247 L14.503906,7.9247 L14.503906,6.8622 L5.503906,6.8622 Z M2.5039062,7.596575 L2.5039062,8.444231 L1.8867188,8.059466 L2.5039062,7.596575 Z M17.503906,7.6122 L18.085938,8.047747 L17.503906,8.411028 L17.503906,7.6122 Z M7.503906,8.8622 L7.503906,9.9247 L12.503906,9.9247 L12.503906,8.8622 L7.503906,8.8622 Z M18.503906,8.965716 L18.503906,18.436419 L13.287109,14.950091 C13.2039908,14.892142 13.1052293,14.8608107 13.003906,14.860247 L13.003906,14.8622 C12.7819243,14.8613747 12.5859706,15.0069903 12.5227233,15.2197727 C12.459476,15.4325551 12.544077,15.6615625 12.730469,15.782122 L17.34375,18.8622 L2.6542969,18.8622 L7.273438,15.782122 C7.46220282,15.6602743 7.54652599,15.4274894 7.4795886,15.213017 C7.41265122,14.9985446 7.21088951,14.8550475 6.986328,14.8622 C6.89055666,14.8652551 6.79767958,14.8957623 6.71875,14.950091 L1.5039062,18.428606 L1.5039062,8.996966 L2.5039062,9.620012 L9.722656,14.120012 L9.755859,14.141497 L9.761719,14.141497 C9.7623682,14.1421498 9.7630192,14.1428008 9.763672,14.14345 C9.764323,14.1434513 9.764974,14.1434513 9.765625,14.14345 C9.77015303,14.1454707 9.77471087,14.1474239 9.779297,14.149309 C9.80390716,14.1604668 9.82938124,14.1696114 9.855469,14.176653 C9.86515345,14.1795529 9.8749236,14.1821584 9.884766,14.184466 C9.89124975,14.1858975 9.89776138,14.1871998 9.904297,14.188372 C9.905599,14.1883771 9.906901,14.1883771 9.908203,14.188372 C9.9230808,14.1910026 9.93807018,14.1929576 9.953125,14.194231 C9.95507798,14.1942424 9.95703102,14.1942424 9.958984,14.194231 C10.0001649,14.1967128 10.0414946,14.1940889 10.082031,14.186419 C10.0885666,14.1852465 10.0950783,14.1839439 10.101562,14.182512 C10.134505,14.1747125 10.1665708,14.1635877 10.197266,14.149309 C10.2025194,14.1467962 10.2077286,14.1441918 10.212891,14.141497 L10.21875,14.141497 L10.246094,14.123919 C10.2480561,14.1226304 10.2500092,14.1213281 10.251953,14.120012 L17.503906,9.590716 L18.503906,8.965716 Z" id="Shape"></path>
        </g>
    </g>
</svg>