<?xml version="1.0" encoding="UTF-8"?>
<svg width="53px" height="41px" viewBox="0 0 53 41" version="1.1" xmlns="http://www.w3.org/2000/svg" xmlns:xlink="http://www.w3.org/1999/xlink">
    <!-- Generator: Sketch 48.2 (47327) - http://www.bohemiancoding.com/sketch -->
    <title>food</title>
    <desc>Created with Sketch.</desc>
    <defs></defs>
    <g id="Symbols" stroke="none" stroke-width="1" fill="none" fill-rule="evenodd">
        <g id="food" fill-rule="nonzero">
            <g id="Group">
                <g transform="translate(5.314815, 0.000000)">
                    <g id="Shape">
                        <path d="M33.8230019,15.6787037 C33.8230019,15.9444444 33.5552632,15.9444444 33.5552632,16.2101852 L33.2875244,16.7416667 C33.0197856,17.2731481 32.7520468,18.0703704 32.484308,18.6018519 C31.9488304,19.9305556 30.8778752,21.7907407 29.2714425,22.8537037 C28.2004873,23.6509259 26.5940546,24.1824074 25.2553606,24.1824074 C22.5779727,24.1824074 20.1683236,22.8537037 18.294152,20.462037 C18.0264133,20.1962963 17.7586745,19.6648148 17.4909357,19.1333333 L17.4909357,29.4972222 C22.3102339,29.4972222 28.2004873,28.1685185 31.9488304,26.0425926 C36.2326511,23.9166667 37.8390838,20.1962963 33.8230019,15.6787037 Z" fill="#BC6328"></path>
                        <path d="M19.8076958,9.92460317 C20.6339102,9.21957672 21.9113578,8.73148148 23.1134503,8.43320106 C21.3103115,7.53835979 19.2066496,6.94179894 17.4035108,6.64351852 L17.462963,12.9074074 C18.2222222,11.3888889 18.9814815,10.6296296 19.8076958,9.92460317 Z" fill="#BC6328"></path>
                        <path d="M16.9554581,14.6157407 C16.9554581,13.8185185 17.4909357,13.0212963 17.7586745,12.2240741 L17.7586745,6.64351852 C9.45877193,4.78333333 1.42660819,6.64351852 0.623391813,17.5388889 C0.08791423,25.5111111 7.58460039,28.7 14.8135478,29.4972222 C15.8845029,29.4972222 16.6877193,29.762963 17.7586745,29.4972222 L17.7586745,19.1333333 C17.2231969,17.8046296 16.6877193,16.2101852 16.9554581,14.6157407 Z" fill="#D07428"></path>
                        <path d="M17.7586745,16.7416667 L17.7586745,14.35 C17.7586745,15.1472222 17.7586745,15.9444444 17.7586745,16.7416667 Z" fill="#D07428"></path>
                        <path d="M44.8002924,2.39166667 C44.2648148,1.59444444 44.8002924,0.265740741 43.1938596,0.797222222 C42.3906433,1.06296296 41.8551657,1.86018519 41.3196881,2.39166667 C40.5164717,3.72037037 39.9809942,5.31481481 38.910039,6.11203704 C38.6423002,6.37777778 38.6423002,6.37777778 38.3745614,6.37777778 C30.3423977,9.83240741 25.2553606,6.37777778 20.7038012,9.56666667 C19.3651072,10.6296296 18.294152,11.9583333 18.0264133,13.8185185 L18.0264133,16.2101852 C18.294152,17.2731481 18.5618908,18.3361111 19.3651072,19.3990741 C21.7747563,22.8537037 26.058577,23.9166667 29.2714425,21.7907407 C30.6101365,20.7277778 31.4133528,19.3990741 32.2165692,17.8046296 C32.7520468,17.0074074 33.0197856,15.9444444 33.2875244,15.1472222 C34.8939571,11.1611111 38.3745614,7.44074074 42.3906433,5.58055556 C43.4615984,5.04907407 46.1389864,5.31481481 46.6744639,4.25185185 C47.7454191,3.45462963 45.8712476,3.72037037 44.8002924,2.39166667 Z" fill="#BC6328"></path>
                    </g>
                    <g transform="translate(1.918129, 7.592593)" fill="#F5A03C" id="Shape">
                        <path d="M9.14707602,0.64537037 C8.34385965,0.911111111 6.46968811,2.50555556 4.86325536,4.1 C3.25682261,5.69444444 1.91812865,8.61759259 1.65038986,11.0092593 C1.38265107,13.1351852 0.847173489,14.1981481 0.579434698,12.6037037 C0.311695906,11.8064815 0.311695906,11.0092593 0.311695906,9.9462963 C0.579434698,6.75740741 1.38265107,4.36574074 2.98908382,2.50555556 C6.20194932,-0.683333333 9.9502924,0.113888889 9.14707602,0.64537037 Z"></path>
                        <path d="M19.5888889,6.75740741 C17.4469786,9.9462963 19.5888889,12.8694444 19.3211501,12.337963 C19.0534113,12.0722222 18.7856725,11.8064815 18.7856725,11.5407407 C16.911501,8.88333333 17.4469786,5.4287037 19.5888889,3.83425926 C20.3921053,3.30277778 21.1953216,3.03703704 22.2662768,2.7712963 C23.6049708,2.50555556 21.7307992,3.56851852 19.5888889,6.75740741 Z"></path>
                    </g>
                </g>
                <g transform="translate(0.000000, 16.703704)">
                    <path d="M0.341666667,0.569444444 C0.341666667,8.80740741 4.85925926,16.2481481 11.5027778,19.9685185 L22.3981481,20.2342593 L22.3981481,0.569444444 L0.341666667,0.569444444 Z" id="Shape" fill="#82C7B3"></path>
                    <path d="M45.2518519,0.569444444 L22.3981481,0.569444444 L22.3981481,20.2342593 L33.0277778,20.5 C40.2027778,16.7796296 45.2518519,9.33888889 45.2518519,0.835185185 C45.2518519,0.835185185 45.2518519,0.569444444 45.2518519,0.569444444 Z" id="Shape" fill="#66AF99"></path>
                    <path d="M21.8666667,5.08703704 C21.8666667,5.61851852 22.1324074,5.88425926 22.3981481,6.15 L22.3981481,4.02407407 C22.1324074,4.28981481 21.8666667,4.55555556 21.8666667,5.08703704 Z" id="Shape" fill="#6B9985"></path>
                    <path d="M23.1953704,3.75833333 C22.9296296,3.75833333 22.6638889,3.75833333 22.3981481,4.02407407 L22.3981481,6.15 C22.6638889,6.15 22.6638889,6.41574074 22.9296296,6.41574074 C23.7268519,6.41574074 24.2583333,5.88425926 24.2583333,5.08703704 C24.5240741,4.28981481 23.9925926,3.75833333 23.1953704,3.75833333 Z" id="Shape" fill="#6B9985"></path>
                    <path d="M17.6148148,8.01018519 C17.6148148,9.60462963 16.2861111,10.6675926 14.9574074,10.6675926 C13.362963,10.6675926 12.3,9.33888889 12.3,8.01018519 C12.3,6.41574074 13.6287037,5.35277778 14.9574074,5.35277778 C16.5518519,5.35277778 17.8805556,6.68148148 17.6148148,8.01018519 Z" id="Shape" fill="#E48628"></path>
                    <path d="M20.0064815,3.22685185 C20.0064815,3.75833333 19.475,4.02407407 19.2092593,4.02407407 C18.6777778,4.02407407 18.412037,3.49259259 18.412037,3.22685185 C18.412037,2.69537037 18.9435185,2.42962963 19.2092593,2.42962963 C19.475,2.16388889 20.0064815,2.69537037 20.0064815,3.22685185 Z" id="Shape" fill="#E48628"></path>
                    <path d="M34.887963,19.9685185 L22.3981481,19.9685185 L22.3981481,23.6888889 L34.887963,23.6888889 C35.9509259,23.6888889 36.7481481,22.8916667 36.7481481,21.8287037 C36.7481481,20.7657407 35.9509259,19.9685185 34.887963,19.9685185 Z" id="Shape" fill="#416E59"></path>
                    <path d="M10.1740741,19.9685185 C9.11111111,19.9685185 8.31388889,20.7657407 8.31388889,21.8287037 C8.31388889,22.8916667 9.11111111,23.6888889 10.1740741,23.6888889 L22.6638889,23.6888889 L22.6638889,19.9685185 L10.1740741,19.9685185 Z" id="Shape" fill="#588570"></path>
                </g>
            </g>
        </g>
    </g>
</svg>