<?xml version="1.0" encoding="UTF-8"?>
<svg width="20px" height="14px" viewBox="0 0 20 14" version="1.1" xmlns="http://www.w3.org/2000/svg" xmlns:xlink="http://www.w3.org/1999/xlink">
    <!-- Generator: Sketch 48.2 (47327) - http://www.bohemiancoding.com/sketch -->
    <title>funnels</title>
    <desc>Created with Sketch.</desc>
    <defs></defs>
    <g id="Symbols" stroke="none" stroke-width="1" fill="none" fill-rule="evenodd">
        <g id="funnels" fill="#00A5EC" stroke="#00A5EC" stroke-width="0.5">
            <path d="M1.11111111,0 L18.8888889,0 C19.5022222,0 20,0.488727273 20,1.09090909 C20,1.69309091 19.5022222,2.18181818 18.8888889,2.18181818 L1.11111111,2.18181818 C0.497777778,2.18181818 0,1.69309091 0,1.09090909 C0,0.488727273 0.497777778,0 1.11111111,0 Z M4.44444444,5.45454545 L15.5555556,5.45454545 C16.1688889,5.45454545 16.6666667,5.94327273 16.6666667,6.54545455 C16.6666667,7.14763636 16.1688889,7.63636364 15.5555556,7.63636364 L4.44444444,7.63636364 C3.83111111,7.63636364 3.33333333,7.14763636 3.33333333,6.54545455 C3.33333333,5.94327273 3.83111111,5.45454545 4.44444444,5.45454545 Z M7.77777778,10.9090909 L12.2222222,10.9090909 C12.8355556,10.9090909 13.3333333,11.3978182 13.3333333,12 C13.3333333,12.6021818 12.8355556,13.0909091 12.2222222,13.0909091 L7.77777778,13.0909091 C7.16444444,13.0909091 6.66666667,12.6021818 6.66666667,12 C6.66666667,11.3978182 7.16444444,10.9090909 7.77777778,10.9090909 Z" id="Combined-Shape"></path>
        </g>
    </g>
</svg>