<?xml version="1.0" encoding="UTF-8"?>
<svg width="26px" height="19px" viewBox="0 0 26 19" version="1.1" xmlns="http://www.w3.org/2000/svg" xmlns:xlink="http://www.w3.org/1999/xlink">
    <!-- Generator: Sketch 48.2 (47327) - http://www.bohemiancoding.com/sketch -->
    <title>inbox</title>
    <desc>Created with Sketch.</desc>
    <defs></defs>
    <g id="Symbols" stroke="none" stroke-width="1" fill="none" fill-rule="evenodd">
        <g id="inbox" fill="#00A5EC">
            <path d="M18.9600526,9.80896392 L23.4285825,9.80896392 L23.4285825,16.3233375 C23.4285825,16.3919961 23.4044283,16.417615 23.3359913,16.417615 L2.66400867,16.417615 C2.59557173,16.417615 2.57041109,16.3919961 2.57041109,16.3233375 L2.57041109,9.80896392 L7.0379345,9.80896392 C7.50290315,10.9987056 9.08097856,14.053503 13,14.053503 C16.8928544,14.053503 18.488039,10.9976808 18.9600526,9.80896392 Z M18.0301154,7.15689553 C17.4272664,7.15689553 16.9149957,7.58626827 16.7841604,8.20317135 C16.6563444,8.7370692 15.8773709,11.4014347 13.0342185,11.4014347 C10.1960982,11.4014347 9.41309902,8.73809395 9.28327011,8.20112184 C9.15444763,7.58626827 8.64217698,7.15689553 8.03832159,7.15689553 L3.30308895,7.15689553 L5.19919486,3.10296101 L5.20120771,3.09886198 C5.32801734,2.81500458 5.64403499,2.61722669 5.97112333,2.61722669 L20.0630951,2.61722669 C20.3720678,2.61722669 20.6689634,2.79963325 20.7997987,3.06709455 L22.6979175,7.15689553 L18.0301154,7.15689553 Z M25.8721839,7.93571005 L23.1155841,1.93678874 L23.1115584,1.92756593 C22.5087095,0.738849037 21.3412557,0 20.0630951,0 L5.97112333,0 C4.66377642,0 3.48223272,0.753195621 2.88340946,1.97060568 L0.129828908,7.89471981 C0.0412634513,8.07507686 0,8.25645866 0,8.46448412 L0,16.2884958 C0,17.8092336 1.17047302,19 2.66400867,19 L23.3359913,19 C24.829527,19 26,17.8092336 26,16.2884958 L26,8.50035057 C26,8.29027561 25.9587365,8.1088938 25.8721839,7.93571005 Z" id="Fill-1"></path>
        </g>
    </g>
</svg>