<?xml version="1.0" encoding="UTF-8"?>
<svg width="12px" height="16px" viewBox="0 0 12 16" version="1.1" xmlns="http://www.w3.org/2000/svg" xmlns:xlink="http://www.w3.org/1999/xlink">
    <!-- Generator: Sketch 48.2 (47327) - http://www.bohemiancoding.com/sketch -->
    <title>location</title>
    <desc>Created with Sketch.</desc>
    <defs></defs>
    <g id="Symbols" stroke="none" stroke-width="1" fill="none" fill-rule="evenodd">
        <g id="location" stroke="#FFFFFF">
            <path d="M5.59615385,7.57692308 C5.95513,7.57692308 6.28846,7.48718038 6.59615385,7.30769231 C6.90384769,7.12820423 7.147435,6.88782202 7.32692308,6.58653846 C7.50641115,6.2852549 7.59615385,5.95513 7.59615385,5.59615385 C7.59615385,5.23717769 7.50641115,4.90384769 7.32692308,4.59615385 C7.147435,4.28846 6.90384769,4.04487269 6.59615385,3.86538462 C6.28846,3.68589654 5.95513,3.59615385 5.59615385,3.59615385 C5.23717769,3.59615385 4.90705279,3.68589654 4.60576923,3.86538462 C4.30448567,4.04487269 4.06410346,4.28846 3.88461538,4.59615385 C3.70512731,4.90384769 3.61538462,5.23717769 3.61538462,5.59615385 C3.61538462,6.14743865 3.80769038,6.61538269 4.19230769,7 C4.576925,7.38461731 5.04486904,7.57692308 5.59615385,7.57692308 Z M5.59615385,0 C6.6218,-2.35591093e-15 7.56409827,0.2499975 8.42307692,0.75 C9.269235,1.2500025 9.94230519,1.92307269 10.4423077,2.76923077 C10.9423102,3.62820942 11.1923077,4.57050769 11.1923077,5.59615385 C11.1923077,6.37820904 11.0000019,7.27563596 10.6153846,8.28846154 C10.2820496,9.14744019 9.82051577,10.0769181 9.23076923,11.0769231 C8.74358731,11.8717988 8.18590058,12.6987137 7.55769231,13.5576923 C7.12179269,14.1602594 6.66025885,14.7499971 6.17307692,15.3269231 L5.59615385,16 L5.01923077,15.3269231 C4.53204885,14.7499971 4.070515,14.1602594 3.63461538,13.5576923 C3.00640712,12.6987137 2.44872038,11.8717988 1.96153846,11.0769231 C1.37179192,10.0769181 0.910258077,9.14744019 0.576923077,8.28846154 C0.192305769,7.27563596 0,6.37820904 0,5.59615385 C0,4.57050769 0.2499975,3.62820942 0.75,2.76923077 C1.2500025,1.92307269 1.92307269,1.2500025 2.76923077,0.75 C3.62820942,0.2499975 4.57050769,-2.35591093e-15 5.59615385,0 Z" id="location_on---material"></path>
        </g>
    </g>
</svg>