<?xml version="1.0" encoding="UTF-8"?>
<svg width="60px" height="84px" viewBox="0 0 60 84" version="1.1" xmlns="http://www.w3.org/2000/svg" xmlns:xlink="http://www.w3.org/1999/xlink">
    <!-- Generator: Sketch 48.2 (47327) - http://www.bohemiancoding.com/sketch -->
    <title>Group 11</title>
    <desc>Created with Sketch.</desc>
    <defs>
        <linearGradient x1="50%" y1="0%" x2="50%" y2="100%" id="linearGradient-1">
            <stop stop-color="#F7E2CB" offset="0%"></stop>
            <stop stop-color="#ECC19C" offset="100%"></stop>
        </linearGradient>
        <linearGradient x1="50%" y1="0%" x2="50%" y2="100%" id="linearGradient-2">
            <stop stop-color="#FFC432" offset="0%"></stop>
            <stop stop-color="#EB6D4A" offset="100%"></stop>
        </linearGradient>
    </defs>
    <g id="vendimation-signup-step-3-no-profile-pic" stroke="none" stroke-width="1" fill="none" fill-rule="evenodd" transform="translate(-187.000000, -268.000000)">
        <g id="Group-4" transform="translate(142.000000, 216.000000)">
            <g id="Group" transform="translate(20.000000, 27.000000)">
                <g id="circle">
                    <g id="man" transform="translate(-1.000000, -1.000000)">
                        <g id="Group-11" transform="translate(24.000000, 26.000000)">
                            <path d="M59.2857143,85.1468 L59.2857143,85.1517857 L5,85.1517857 L5,85.1468 C5,82.0761256 5.50665008,79.1186259 6.44828264,76.3660372 C6.6170001,75.8689659 6.801146,75.3768802 7.00121803,74.8897802 L7.00121803,74.8842959 C7.19581546,74.3971959 7.41032055,73.9205658 7.63527717,73.44942 C8.53062441,71.5578566 9.64644904,69.7889407 10.940945,68.1695949 C11.2684261,67.7642599 11.6008841,67.3693948 11.9437936,66.9904839 C12.1125111,66.7955442 12.29168,66.6065872 12.470849,66.4166332 C12.6495203,66.2321634 12.829187,66.0476936 13.0128352,65.8632238 C13.9290855,64.9453618 14.9110311,64.1052764 15.9452343,63.3310017 C16.4618382,62.9466065 16.9839167,62.5876383 17.5264006,62.2396385 C18.0688845,61.8961258 18.6213222,61.5675701 19.1842114,61.2604528 C19.1946629,61.2504815 19.2046167,61.2504815 19.2046167,61.2504815 C19.4245964,61.1323211 19.6395992,61.0041893 19.854602,60.8710719 C20.4941358,60.4866767 21.1082872,60.0609005 21.6915818,59.5897546 C24.1631184,57.6214119 26.0767427,54.9760152 27.1666874,51.9417361 C27.8166727,50.1269521 28.169536,48.1740649 28.169536,46.1339286 L32.1246914,46.1543698 L36.1928228,46.1753096 C36.1928228,48.1895205 36.5357323,50.1219664 37.1702891,51.9163092 C38.2448053,54.9610581 40.1534527,57.6164262 42.6249894,59.5947403 C42.9932812,59.8973705 43.3670476,60.1740752 43.7607217,60.4358229 C43.8020301,60.4662355 43.8373662,60.4916624 43.8786746,60.5175879 C44.0628205,60.640734 44.2469664,60.7633814 44.4415638,60.8765562 C44.651092,61.0046879 44.8660948,61.1328196 45.0810975,61.25098 C45.1169313,61.2609514 45.1477882,61.2764069 45.1731705,61.2968482 C45.6235814,61.548126 46.0685177,61.8093751 46.5035002,62.0810942 C46.7135261,62.2092259 46.9230543,62.3423433 47.1276055,62.4909163 C47.5526342,62.7626353 47.9667136,63.0602798 48.3713369,63.3678957 C48.3713369,63.3728814 48.3763138,63.3728814 48.3763138,63.3728814 L48.3812907,63.3728814 C48.8983923,63.7572766 49.3995678,64.1675972 49.8907894,64.5878893 C50.3820111,65.0086799 50.8528273,65.4489146 51.3082152,65.905602 C56.2408369,70.824963 59.2857143,77.6224262 59.2857143,85.1468 Z" id="Shape" fill="#ECC19C" fill-rule="nonzero"></path>
                            <g id="Group" transform="translate(10.937500, 20.687500)"></g>
                            <g id="Group-13" transform="translate(13.000000, 0.000000)" fill-rule="nonzero">
                                <path d="M37.2523717,18.2200164 L37.2523717,31.8305058 C37.2523717,32.0272671 37.2480182,32.2240285 37.2432295,32.4207899 C37.2388761,32.5818556 37.2345227,32.7385682 37.2253805,32.9000693 C37.2210271,33.0432872 37.211885,33.1865051 37.1983894,33.329723 C37.194036,33.4324568 37.1848939,33.5356259 37.1761871,33.6383597 C37.1713983,33.7014801 37.1670449,33.7589414 37.1579028,33.8220617 C37.149196,33.9339371 37.1400538,34.0501656 37.1222048,34.162041 C37.1043559,34.3766502 37.0773648,34.5873416 37.0460202,34.8019508 C37.0416668,34.8559296 37.0325247,34.9094731 37.0238179,34.9630165 C37.0103223,35.0705388 36.9924734,35.178061 36.9746244,35.285148 L36.9746244,35.2986427 C36.9480686,35.45492 36.9210775,35.6072794 36.8940864,35.763992 C36.8535997,35.9786012 36.8135484,36.1936458 36.7687083,36.4039018 C36.7643549,36.4130434 36.7643549,36.422185 36.7600015,36.4313265 C36.7556481,36.4622337 36.7508594,36.4940116 36.7421526,36.5253541 C36.7377992,36.5344957 36.7377992,36.5432019 36.7330104,36.5523435 C36.7108081,36.6690073 36.6838169,36.7804474 36.6568258,36.8923228 C36.648119,36.9415131 36.6389769,36.9911388 36.6211279,37.0403291 C36.6076324,37.120862 36.5849946,37.2009595 36.567581,37.2819277 C36.5540855,37.3267649 36.5453787,37.3759553 36.5270944,37.4203572 C36.5179522,37.4608413 36.504892,37.5013254 36.4957498,37.537021 C36.4017163,37.9039897 36.2941872,38.2622521 36.1823047,38.6200792 C36.1283225,38.7902865 36.0747756,38.9557053 36.0168753,39.1259126 C36.0125219,39.1437605 36.0033797,39.1616083 35.9990263,39.1794561 C35.9454794,39.3318156 35.8914972,39.4837397 35.8379503,39.6360992 C35.8201014,39.6809364 35.8022524,39.7253383 35.7844034,39.7745287 C35.7304212,39.9177466 35.6768743,40.0609645 35.6189741,40.2041824 C35.5519316,40.3783075 35.4801004,40.5485148 35.4087046,40.7191574 C35.3460156,40.8715169 35.2789731,41.0230057 35.2119307,41.1753652 C35.2032239,41.2027899 35.1897283,41.2245556 35.1805862,41.2515449 C35.1044016,41.4126107 35.0330057,41.5736764 34.9568211,41.7308243 C34.8806365,41.8962432 34.8000986,42.0620973 34.7152072,42.2279515 C34.5541312,42.5544361 34.3795596,42.881356 34.2049881,43.198699 L33.9633741,43.6283527 C33.2737947,44.8145801 32.5089014,45.9285455 31.676095,46.9580602 C31.5642125,47.1056312 31.4479766,47.2488491 31.326952,47.3872786 C31.1615226,47.5888284 30.9913044,47.7855898 30.8210863,47.977998 C30.6687171,48.1482053 30.5167833,48.3179773 30.3600607,48.4838315 C29.9303796,48.9448277 29.4915564,49.3831877 29.0440263,49.7954289 C28.9543462,49.884668 28.860748,49.9656362 28.7667144,50.0505222 C28.6143452,50.1889516 28.4624114,50.3234633 28.3056888,50.4531865 C28.1850995,50.5607087 28.0597214,50.6634426 27.933908,50.7666117 C27.611756,51.0304112 27.2896041,51.2855045 26.9626633,51.52275 C26.8285785,51.6259191 26.6897048,51.7242998 26.5508312,51.8183274 C26.3270662,51.9793931 26.0985124,52.1317526 25.870394,52.2797589 C25.7450159,52.3646449 25.6152844,52.4451778 25.485553,52.5213575 C25.0288808,52.8030049 24.5678552,53.0628866 24.111183,53.2866374 C23.9993005,53.3449693 23.887418,53.3989481 23.7755354,53.4524915 C23.6636529,53.506035 23.547417,53.5600138 23.4263924,53.6135573 C23.2788119,53.6805954 23.1307962,53.7432805 22.9832157,53.8016124 C22.9248801,53.8281665 22.8669798,53.8508027 22.8086442,53.8686506 C22.6340726,53.9404772 22.4551477,54.00708 22.2805761,54.0654119 C22.0615999,54.1463801 21.8373995,54.2134183 21.6184232,54.275668 C21.466054,54.3205052 21.3097668,54.360554 21.1573976,54.3962496 C21.1482555,54.4010381 21.1395487,54.4053912 21.1260531,54.4053912 C20.9736839,54.4415222 20.8217501,54.4772178 20.6693809,54.5042072 C20.6293296,54.5133488 20.5888429,54.522055 20.5487916,54.5268435 C20.4234135,54.5490444 20.2980354,54.5716807 20.1726574,54.5851754 C19.9937324,54.6121648 19.8143721,54.6343657 19.6354472,54.643072 C19.5727582,54.6522136 19.5148579,54.6565667 19.4521688,54.6565667 C19.3089418,54.6652729 19.1657148,54.6700614 19.0268412,54.6700614 L19.0133456,54.6700614 C18.8749073,54.6700614 18.7360337,54.6652729 18.5971601,54.6565667 C18.5436132,54.6565667 18.489631,54.6522136 18.4360841,54.643072 C18.310706,54.6387189 18.1809745,54.6252242 18.0464543,54.6073763 C18.0198986,54.6073763 17.988554,54.6030232 17.9615629,54.5982348 C17.7961335,54.5760338 17.6302688,54.5490444 17.460486,54.5177019 C17.317259,54.4950656 17.1740319,54.4637231 17.0260162,54.4280275 C16.2606875,54.2534671 15.4731566,53.9892322 14.6764834,53.6361935 C13.9960462,53.336263 13.3069022,52.9736475 12.6221116,52.5531353 C12.2777572,52.3428793 11.9329675,52.1191285 11.5925312,51.881883 C11.4223131,51.7608661 11.2525303,51.6398491 11.0823122,51.514479 C10.5494554,51.1248741 10.0213873,50.7000088 9.50246145,50.2433657 C9.35923442,50.1136425 9.2160074,49.9839193 9.07278037,49.849843 C8.92955334,49.7201198 8.78632631,49.5856081 8.64745269,49.4558849 C8.2983096,49.1202588 7.95830866,48.7715732 7.62701453,48.4089577 C7.49728306,48.2700929 7.36755159,48.1273103 7.23738477,47.979304 C6.87953487,47.5766396 6.53039178,47.1604806 6.19909765,46.7260385 C6.06936618,46.5697612 5.94834152,46.4086954 5.8277522,46.2471944 C5.37543341,45.6473334 4.94618766,45.0209183 4.54306235,44.3714316 C4.43553324,44.1973065 4.32800414,44.018393 4.22526378,43.8433972 C4.09988571,43.6331412 3.97929639,43.4180967 3.85827173,43.2034875 C3.41074168,42.3977235 2.99890956,41.5610523 2.64105966,40.6969565 C2.58707743,40.5715864 2.53353055,40.4462163 2.48869048,40.3212815 C2.41729463,40.1602158 2.3546056,39.9943616 2.29626997,39.8332959 C2.20658983,39.5960504 2.12169843,39.358805 2.04116043,39.1215595 C1.96062244,38.8843141 1.88443785,38.6422801 1.80825326,38.4011169 C1.73685742,38.1682245 1.66981498,37.9357675 1.60712594,37.698522 C1.53529476,37.4477819 1.46825232,37.1926886 1.40991669,36.9332422 C1.40556329,36.9062528 1.39642114,36.8792634 1.39206773,36.852274 C1.30717633,36.4944469 1.23099174,36.1318313 1.1639493,35.7648627 C1.07426916,35.2816655 1.00287331,34.7893267 0.949326431,34.2921995 C0.926688725,34.1359223 0.913193169,33.9787743 0.900132953,33.822497 C0.882283992,33.6566429 0.868788437,33.4955772 0.859646286,33.3301583 C0.83744392,33.0302278 0.823948364,32.7255088 0.814806213,32.4212252 C0.810452808,32.2244638 0.805664062,32.0277025 0.805664062,31.8309411 L0.805664062,18.2200164 C0.805664062,8.16298525 8.95610911,0.0087062556 19.0133456,0 L19.0316299,0 C20.4190601,0 21.7707924,0.156277288 23.0685425,0.447501538 C24.2548454,0.71565421 25.3963082,1.10090602 26.479,1.58845633 C27.9561104,2.25056707 29.330045,3.10160356 30.5655414,4.11762358 C31.6042639,4.96778944 32.5485174,5.92547756 33.3721817,6.98198167 C35.7713432,10.038748 37.2166737,13.8790774 37.2480182,18.0589507 C37.2523717,18.1124941 37.2523717,18.1660376 37.2523717,18.2200164 Z" id="Shape" fill="url(#linearGradient-1)"></path>
                                <path d="M37.2523717,31.3441685 C37.2523717,31.5451197 37.2480182,31.7460708 37.2432295,31.947022 C37.2388761,32.1115174 37.2345227,32.2715669 37.2253805,32.4365069 C37.2210271,32.5827745 37.211885,32.729042 37.1983894,32.8753095 C37.194036,32.9802309 37.1848939,33.0855969 37.1761871,33.1905183 C37.1713983,33.2549827 37.1670449,33.3136676 37.1579028,33.378132 C37.149196,33.4923896 37.1400538,33.611093 37.1222048,33.7253506 C37.0995671,33.9445297 37.0773648,34.1637087 37.0460202,34.3788864 C37.0416668,34.4340146 37.0325247,34.4886982 37.0238179,34.5433818 C37.0103223,34.6531936 36.9924734,34.7630054 36.9746244,34.8723726 C36.952422,35.0368681 36.9210775,35.2013635 36.8940864,35.3618576 C36.8583885,35.5539171 36.8222552,35.7410862 36.7822039,35.9282553 C36.7774152,35.9696015 36.7687083,36.0060572 36.7595662,36.0429575 C36.7552128,36.0745228 36.7460706,36.1069773 36.7417172,36.1389873 C36.7373638,36.1483235 36.7373638,36.1572151 36.7325751,36.1665514 C36.7325751,36.189225 36.7282217,36.2078975 36.7238683,36.2261254 C36.7016659,36.3221551 36.6833816,36.4181849 36.6568258,36.51377 C36.648119,36.5640078 36.6389769,36.6146902 36.6211279,36.664928 C36.6028436,36.7560673 36.5806412,36.8427608 36.5540855,36.9298989 C36.5497321,36.9712451 36.5405899,37.0125912 36.5270944,37.0530482 C36.5179522,37.0943943 36.504892,37.1357405 36.4957498,37.1721962 C36.4017163,37.546979 36.2941872,37.9128701 36.1823047,38.2783167 C36.1283225,38.4521483 36.0747756,38.6210895 36.0168753,38.7949212 C36.0125219,38.813149 36.0033797,38.8313769 35.9990263,38.8496048 C35.9454794,39.0052085 35.8914972,39.1603677 35.8379503,39.3159715 C35.8201014,39.3617634 35.8022524,39.4071108 35.7844034,39.4573486 C35.7304212,39.6036161 35.6768743,39.7498837 35.6189741,39.8961512 C35.5519316,40.0739841 35.4801004,40.2478157 35.4087046,40.4220919 C35.3460156,40.5776957 35.2789731,40.7324103 35.2119307,40.888014 C35.2032239,40.9160227 35.1897283,40.9382518 35.1805862,40.9658159 C35.1044016,41.1303113 35.0330057,41.2948067 34.9568211,41.4553009 C34.8806365,41.6242421 34.8000986,41.7936279 34.7152072,41.9630137 C34.5541312,42.2964504 34.3795596,42.6303316 34.2049881,42.954432 L33.9633741,43.3932346 C33.2737947,44.604721 32.5089014,45.7424068 31.676095,46.7938436 C31.5642125,46.944557 31.4479766,47.0908245 31.326952,47.2322016 C31.1615226,47.4380432 30.9913044,47.6389943 30.8210863,47.8354996 C30.6687171,48.0093313 30.5167833,48.1827183 30.3600607,48.3521041 C29.9303796,48.8229166 29.4915564,49.2706109 29.0440263,49.6916302 C28.9543462,49.7827696 28.860748,49.8654618 28.7667144,49.9521554 C28.6143452,50.0935325 28.4624114,50.2309084 28.3056888,50.3633939 C28.1850995,50.4732057 28.0597214,50.5781271 27.933908,50.683493 C27.611756,50.9529098 27.2896041,51.213435 26.9626633,51.4557323 C26.8285785,51.5610982 26.6897048,51.6615738 26.5508312,51.7576036 C26.3270662,51.922099 26.0985124,52.0777027 25.870394,52.2288607 C25.7450159,52.3155542 25.6152844,52.3978019 25.485553,52.4756038 C25.0288808,52.7632484 24.5678552,53.028664 24.111183,53.2571792 C23.9993005,53.3167533 23.887418,53.3718814 23.7755354,53.426565 C23.6636529,53.4812487 23.547417,53.5363768 23.4263924,53.5910605 C23.2788119,53.6595261 23.1307962,53.7235459 22.9832157,53.7831199 C22.9248801,53.8102395 22.8669798,53.8333577 22.8086442,53.8515856 C22.6340726,53.9249417 22.4551477,53.9929627 22.2805761,54.0525367 C22.0615999,54.135229 21.8373995,54.2036947 21.6184232,54.2672699 C21.466054,54.3130619 21.3097668,54.3539635 21.1573976,54.3904192 C21.1482555,54.3953096 21.1395487,54.3997554 21.1260531,54.3997554 C20.9736839,54.4366557 20.8217501,54.4731115 20.6693809,54.5006756 C20.6293296,54.5100118 20.5888429,54.5189034 20.5487916,54.5237938 C20.4234135,54.5464675 20.2980354,54.5695858 20.1726574,54.5833679 C19.9937324,54.610932 19.8143721,54.6336056 19.6354472,54.6424973 C19.5727582,54.6518335 19.5148579,54.6562793 19.4521688,54.6562793 C19.3089418,54.665171 19.1657148,54.6700614 19.0268412,54.6700614 L19.0133456,54.6700614 C18.8749073,54.6700614 18.7360337,54.665171 18.5971601,54.6562793 C18.5436132,54.6562793 18.489631,54.6518335 18.4360841,54.6424973 C18.310706,54.6380515 18.1809745,54.6242694 18.0464543,54.6060416 C18.0198986,54.6060416 17.988554,54.6015957 17.9615629,54.5967053 C17.7961335,54.5740316 17.6302688,54.5464675 17.460486,54.5144576 C17.317259,54.4913394 17.1740319,54.4593294 17.0260162,54.4228737 C16.2606875,54.2445962 15.4731566,53.9747349 14.6764834,53.6141787 C13.9960462,53.3078616 13.3069022,52.9375247 12.6221116,52.5080583 C12.2777572,52.2977709 11.9373209,52.0692557 11.5925312,51.8225126 C11.4223131,51.6989187 11.2525303,51.5753249 11.0823122,51.4472852 C10.5494554,51.0493842 10.0213873,50.615472 9.50246145,50.1491053 C9.35923442,50.0166198 9.2160074,49.8841343 9.07278037,49.747203 C8.92955334,49.6147175 8.78632631,49.4773416 8.64745269,49.3448561 C8.2983096,49.0020833 7.95830866,48.6459729 7.62701453,48.275636 C7.49728306,48.1338143 7.36755159,47.9879913 7.23738477,47.8368334 C6.87953487,47.4255949 6.53039178,47.0005743 6.19909765,46.5568813 C6.06936618,46.3972763 5.94834152,46.2327809 5.8277522,46.0678409 C5.37543341,45.4552067 4.94618766,44.8154529 4.54306235,44.1521363 C4.43553324,43.9743035 4.32800414,43.7915802 4.22526378,43.6128582 C4.09988571,43.398125 3.97929639,43.1785014 3.85827173,42.9593224 C3.41074168,42.1364008 2.99890956,41.2819138 2.64105966,40.3994182 C2.58707743,40.2713786 2.53353055,40.1433389 2.48869048,40.0157438 C2.41729463,39.8512484 2.3546056,39.6818626 2.29626997,39.5173672 C2.20658983,39.2750699 2.12169843,39.0327726 2.04116043,38.7904753 C1.96062244,38.5481781 1.88443785,38.3009904 1.80825326,38.0546918 C1.73685742,37.8168404 1.66981498,37.5794335 1.60712594,37.3371362 C1.53529476,37.0810569 1.46825232,36.8205317 1.40991669,36.5555608 C1.40556329,36.5279967 1.39642114,36.5004326 1.39206773,36.4728685 C1.30717633,36.1074219 1.23099174,35.737085 1.1639493,35.3623022 C1.07426916,34.868816 1.00287331,34.3659936 0.949326431,33.8582807 C0.926688725,33.6986757 0.913193169,33.5381815 0.900132953,33.3785765 C0.882283992,33.2091907 0.868788437,33.0446953 0.859646286,32.8757541 C0.83744392,32.569437 0.823948364,32.2582295 0.814806213,31.9474665 C0.810452808,31.7465154 0.805664062,31.5455643 0.805664062,31.3446131 L3.7150447,37.1864229 L8.71449513,39.4124458 L14.6264193,39.9557252 L14.6307727,39.9557252 L19.0124749,40.3625179 L19.039466,40.3625179 L23.1390676,40.7417465 C23.1390676,40.7417465 23.1390676,40.7373007 23.143421,40.7417465 L32.2877485,41.5833405 L37.2523717,31.3441685 Z" id="Shape" fill="#543E36"></path>
                                <path d="M19.0980063,33.9204278 L19.0936674,38.2532917 L19.0936674,38.2575702 L19.0893285,39.7755914 L19.0893285,40.9675889 L19.0849896,44.9265095 L19.0849896,44.9312159 L19.0806507,44.9265095 L19.0763118,44.9265095 L19.0628612,44.9175246 L1.51724264,36.1110334 C1.51290375,36.0845065 1.50379207,36.0579797 1.49945317,36.0314528 C1.41484475,35.6797579 1.33891411,35.3233567 1.27209514,34.9626769 C1.18271393,34.4877604 1.11155607,34.0038591 1.05818768,33.5152514 C1.03562543,33.3616523 1.02217486,33.2071974 1.00915818,33.0535983 C0.991368715,32.8905865 0.977918145,32.732281 0.968806468,32.569697 C0.94667811,32.2749065 0.933227539,31.9754097 0.924115862,31.6763407 C0.919776968,31.4829513 0.915004185,31.2895619 0.915004185,31.0961725 L0.915004185,25.8395747 C0.915004185,25.914449 0.919343079,25.9893232 0.919343079,26.0637695 C0.954922008,27.3349198 1.16015168,28.7335701 1.55716046,30.1634537 C1.86522192,31.263035 2.24834624,32.279185 2.69481841,33.185377 L2.69481841,33.1896555 C3.86371638,35.5873418 5.42962314,37.2144654 6.87013587,37.4784505 C6.95951708,37.4917139 7.0528033,37.5006988 7.14218451,37.5092559 C7.69973236,37.5708667 8.28418135,37.6059506 8.8864198,37.6059506 C11.1617357,37.6059506 13.1823585,35.8025516 14.4536544,35.0722072 C14.4627661,35.0679286 14.4714439,35.0632223 14.4805555,35.0593716 C14.5473745,35.0195813 14.6141935,34.979791 14.6723346,34.9404286 C14.6901241,34.927593 14.7079136,34.9186081 14.7261369,34.910051 C15.796542,34.3072066 17.3403204,33.9242785 19.0619934,33.9204278 L19.0980063,33.9204278 Z" id="Shape" fill="#543E36"></path>
                                <path d="M37.2441278,25.8374355 L37.2397889,31.0940332 C37.2397889,32.4135308 37.1148287,33.7069293 36.8831318,34.9605376 C36.7894117,35.4619809 36.682241,35.9591457 36.5572809,36.4516041 L32.4396707,42.3153248 L19.083254,44.9239424 L19.0789151,44.9239424 L19.0745762,44.9286488 L19.0745762,44.9239424 L19.0611257,33.9161493 L19.0971385,33.9161493 C20.8188115,33.9208557 22.3669288,34.3033559 23.4373339,34.9057725 C23.4555573,34.9147574 23.468574,34.9233144 23.4863634,34.9365779 C23.5488435,34.9759403 23.6156625,35.0157306 23.6829153,35.0550931 C23.6872542,35.0593716 23.6963659,35.064078 23.7050437,35.0683565 C24.9806784,35.7982731 26.9969624,37.6033835 29.2722782,37.6033835 C29.8745167,37.6033835 30.4589657,37.5682996 31.0165135,37.5066888 C31.1102336,37.4977039 31.199181,37.4891468 31.2929011,37.4758834 C32.7295088,37.2118983 34.2997544,35.5843468 35.4638796,33.1870884 L35.4638796,33.1828098 C35.9099179,32.2766179 36.2934761,31.2604679 36.6015376,30.1608865 C37.0028853,28.7087546 37.2128877,27.2925624 37.239355,26.0038702 C37.2441278,25.9473936 37.2441278,25.8943399 37.2441278,25.8374355 Z" id="Shape" fill="#543E36"></path>
                                <ellipse id="Oval" fill="#ECC19C" cx="20.1224191" cy="39.7269113" rx="4.73807199" ry="1.09340123"></ellipse>
                                <path d="M19.0375101,0 L19.0200901,0 C8.95912819,0.00913720911 0.805664062,8.15952774 0.805664062,18.211328 L0.805664062,26.2416295 C0.805664062,26.2416295 1.56213064,21.450251 3.59984342,19.1241787 C5.8117569,16.5966526 5.25213713,12.7538035 10.2133733,12.7538035 C13.4147468,12.7538035 13.593738,13.934679 19.0161706,13.934679 L19.0205256,13.934679 L19.0379456,13.934679 L19.0423007,13.934679 C24.4647332,13.934679 24.6437244,12.7538035 27.8450979,12.7538035 C32.8063341,12.7538035 32.2462788,16.5962175 34.4586278,19.1241787 C36.4959051,21.450251 37.2523717,26.2416295 37.2523717,26.2416295 L37.2523717,18.211328 C37.2519362,8.15952774 29.098472,0.00870210392 19.0375101,0 Z" id="Shape" fill="#543E36"></path>
                            </g>
                            <g id="Group-12" transform="translate(0.000000, 61.000000)" fill-rule="nonzero">
                                <path d="M65,25 L0,25 C0,21.9976016 0.606652364,19.105374 1.73414379,16.4144762 C1.93616261,15.9284572 2.15725104,15.447313 2.39562132,14.9710436 L2.39562132,14.9656813 C2.62862827,14.4894119 2.88606817,14.0233796 3.15542659,13.5622221 C4.22749693,11.7132049 5.56296643,9.98362062 7.1135651,8.39979331 C7.50568421,8.00395835 7.90435851,7.61787302 8.31435539,7.2473871 C8.5163742,7.05678184 8.73090746,6.87153888 8.94544071,6.68629592 C9.15997396,6.50592777 9.37450722,6.32555963 9.59499972,6.14519148 C10.691503,5.24773809 11.8678604,4.4263318 13.105598,3.66927307 C13.7247648,3.29342485 14.349295,2.94243819 14.998854,2.60168864 C15.335552,2.42668279 15.672846,2.25606427 16.0155032,2.09080805 C16.3343235,1.93530146 16.659103,1.78466968 16.9838825,1.6394002 C16.9963969,1.62916309 17.0083155,1.63452539 17.0083155,1.63452539 L17.0083155,1.62916309 C17.2717146,1.50875517 17.5291545,1.38883472 17.7865944,1.2630645 C18.5523589,0.882341471 19.2877313,0.461157476 19.9736417,0 C19.979601,0.00536229623 19.979601,0.00536229623 19.9861562,0.010237111 C23.1600565,2.66652367 27.5776537,4.3156735 32.4791426,4.32591062 L32.5286044,4.32591062 C37.4300933,4.32591062 41.8655683,2.67188597 45.0519831,0.0155994072 L45.0579423,0.010237111 C45.4929681,0.306138367 45.9464675,0.582052882 46.4118855,0.837493175 C46.4607514,0.867229545 46.5036581,0.892091101 46.552524,0.917440137 C46.7730165,1.03784806 47.0000642,1.15289369 47.2265159,1.2684268 C47.4774007,1.39370954 47.7354365,1.51411746 47.9922805,1.62916309 C48.0351871,1.6394002 48.0661753,1.65938694 48.1025267,1.67449887 C48.3903588,1.8051439 48.6847461,1.94017627 48.966619,2.08008346 C49.2121404,2.20049138 49.4570658,2.32089931 49.6960321,2.44618205 C49.9469168,2.57146478 50.1983974,2.70162234 50.4433229,2.84689182 C50.9522434,3.11256922 51.4480536,3.40359566 51.9319453,3.70437173 L51.9444597,3.70437173 C52.5630306,4.08509477 53.169683,4.48141721 53.7519024,4.89675142 C54.340081,5.30818579 54.9038268,5.73911941 55.4490988,6.18516496 C61.3547225,10.9961196 65,17.6419546 65,25 Z" id="Shape" fill="url(#linearGradient-2)"></path>
                                <path d="M49,2.06085487 L48.3250081,2.61724221 C44.1157088,6.08790147 38.4949542,8 32.5,8 C26.4441712,7.98985752 20.8353528,6.07341222 16.6445546,2.60758271 L16,2.07148032 C16.3192932,1.91741125 16.6445546,1.76817194 16.9698159,1.62424535 C16.9823489,1.61410287 16.9942851,1.6194156 16.9942851,1.6194156 L16.9942851,1.61410287 C17.258075,1.49480802 17.5158968,1.37599614 17.7737187,1.25138855 C18.5406192,0.874184979 19.2770825,0.45689447 19.9640106,0 C19.9699787,0.00531272639 19.9699787,0.00531272639 19.9765436,0.0101424777 C23.1551525,2.64187394 27.5793034,4.2757788 32.4880638,4.28592128 L32.537599,4.28592128 C37.4463595,4.28592128 41.8884147,2.64718667 45.0795566,0.0154552041 L45.0855247,0.0101424777 C45.5211958,0.30330838 45.975368,0.576672301 46.4414765,0.829751268 C46.4904149,0.859212751 46.5333852,0.883844482 46.5823236,0.908959189 C46.8031432,1.02825404 47.0305277,1.14223617 47.2573154,1.25670128 C47.5085724,1.38082589 47.766991,1.50012074 48.024216,1.61410287 C48.0671863,1.62424535 48.0982204,1.64404733 48.1346258,1.65901956 C48.4234818,1.78845689 48.717709,1.922241 49,2.06085487 Z" id="Shape" fill="#C34628"></path>
                            </g>
                        </g>
                    </g>
                </g>
            </g>
        </g>
    </g>
</svg>