<?xml version="1.0" encoding="UTF-8"?>
<svg width="16px" height="15px" viewBox="0 0 16 15" version="1.1" xmlns="http://www.w3.org/2000/svg" xmlns:xlink="http://www.w3.org/1999/xlink">
    <!-- Generator: Sketch 48.2 (47327) - http://www.bohemiancoding.com/sketch -->
    <title>owner</title>
    <desc>Created with Sketch.</desc>
    <defs></defs>
    <g id="Symbols" stroke="none" stroke-width="1" fill="none" fill-rule="evenodd">
        <g id="owner" fill="#323C47" fill-rule="nonzero">
            <path d="M8.46264383,3.27371818 L8.46264383,13.0711095 L11.5294558,13.0711095 L14.2726525,5.56545399 L11.6165574,6.57334806 C11.1823965,6.73809674 10.6919488,6.58229109 10.4324659,6.19718538 L8.46264383,3.27371818 Z M7.46264383,0 L11.2617771,5.63839836 L15.9626438,3.85458585 L12.2286683,14.0711095 L7.46264383,14.0711095 L7.46264383,0 Z" id="XMLID_1228_"></path>
            <path d="M7.54632292,3.19405985 L5.45405896,6.20794378 C5.1904577,6.58765859 4.70095803,6.73722221 4.27014607,6.56968109 L1.73473978,5.58367133 L4.44086681,13.0711095 L7.54632292,13.0711095 L7.54632292,3.19405985 Z M8.54632292,0 L8.54632292,14.0711095 L3.73898008,14.0711095 L0.0463229228,3.85409387 L4.63259822,5.63767871 L8.54632292,0 Z" id="XMLID_1229_"></path>
        </g>
    </g>
</svg>