<?xml version="1.0" encoding="UTF-8"?>
<svg width="40px" height="40px" viewBox="0 0 40 40" version="1.1" xmlns="http://www.w3.org/2000/svg" xmlns:xlink="http://www.w3.org/1999/xlink">
    <!-- Generator: Sketch 48.2 (47327) - http://www.bohemiancoding.com/sketch -->
    <title>rocket</title>
    <desc>Created with Sketch.</desc>
    <defs></defs>
    <g id="Symbols" stroke="none" stroke-width="1" fill="none" fill-rule="evenodd">
        <g id="rocket" fill-rule="nonzero">
            <g id="rocket-(1)">
                <polygon id="Shape" fill="#C4C8F5" points="7.01420408 22.2388571 3.9755102 26.8964898 13.0346122 35.9556735 17.6922449 32.916898"></polygon>
                <polygon id="Shape" fill="#C4C8F5" points="9.35110204 8.67779592 1.40114286 16.6277551 7.75036735 18.6502041 18.1494694 8.25110204"></polygon>
                <polygon id="Shape" fill="#A7ADF0" points="23.3032653 38.5299592 31.2533061 30.58 31.6800816 21.7810612 21.2808163 32.1802449"></polygon>
                <rect id="Rectangle-path" fill="#FFB655" transform="translate(2.543121, 30.548121) rotate(45.000000) translate(-2.543121, -30.548121) " x="0.910442711" y="28.5855679" width="3.26535644" height="3.92510521"></rect>
                <rect id="Rectangle-path" fill="#FF9811" transform="translate(9.382724, 37.388446) rotate(-135.000000) translate(-9.382724, -37.388446) " x="7.75004575" y="35.4258932" width="3.26535644" height="3.92510521"></rect>
                <rect id="Rectangle-path" fill="#FFB655" transform="translate(5.243437, 34.565211) rotate(-45.000000) translate(-5.243437, -34.565211) " x="2.35024001" y="32.9325736" width="5.78639349" height="3.26527481"></rect>
                <path d="M38.9569796,1.92506122 L38.6960816,1.23469388 L32.9665306,6.9642449 C34.5608163,8.55853061 34.5602449,11.1428571 32.9665306,12.7365714 C31.3722449,14.3308571 28.7885714,14.3308571 27.1942041,12.7365714 L12.3530612,27.5777143 L19.1182041,34.3428571 L35.5051429,17.9558367 C39.6969796,13.7640816 41.0517551,7.47167347 38.9569796,1.92506122 Z" id="Shape" fill="#165C92"></path>
                <path d="M32.9665306,12.7365714 C34.5602449,11.1428571 34.5608163,8.55861224 32.9665306,6.9642449 L27.1942041,12.7365714 C28.7884898,14.3308571 31.3722449,14.3308571 32.9665306,12.7365714 Z" id="Shape" fill="#96C8EF"></path>
                <path d="M27.1942041,12.7365714 C25.6004898,11.1428571 25.5999184,8.55861224 27.1942041,6.9642449 C28.7879184,5.37053061 31.3728163,5.37053061 32.9665306,6.9642449 L38.6960816,1.23469388 L38.0062857,0.974367347 C36.2948571,0.327265306 34.4955918,0 32.66,0 C28.624,0 24.8293061,1.57118367 21.9755102,4.42506122 L5.58791837,20.8125714 L12.3530612,27.5777143 L27.1942041,12.7365714 Z" id="Shape" fill="#1E81CE"></path>
                <path d="M27.1942041,6.9642449 C25.5999184,8.55853061 25.6004898,11.1428571 27.1942041,12.7365714 L32.9665306,6.9642449 C31.3728163,5.37053061 28.7879184,5.37053061 27.1942041,6.9642449 Z" id="Shape" fill="#D1E7F8"></path>
            </g>
        </g>
    </g>
</svg>