<?xml version="1.0" encoding="UTF-8"?>
<svg width="23px" height="19px" viewBox="0 0 23 19" version="1.1" xmlns="http://www.w3.org/2000/svg" xmlns:xlink="http://www.w3.org/1999/xlink">
    <!-- Generator: Sketch 48.2 (47327) - http://www.bohemiancoding.com/sketch -->
    <title>sales-funnels</title>
    <desc>Created with Sketch.</desc>
    <defs></defs>
    <g id="Symbols" stroke="none" stroke-width="1" fill="none" fill-rule="evenodd" opacity="0.800000012">
        <g id="sales-funnels" fill="#323C47">
            <g id="Group-5">
                <path d="M1.6498,18.4735 L1.3958,18.4735 C0.6248,18.4735 -0.0002,17.8485 -0.0002,17.0775 L-0.0002,6.5385 C-0.0002,5.7675 0.6248,5.1425 1.3958,5.1425 L1.6498,5.1425 C2.4208,5.1425 3.0458,5.7675 3.0458,6.5385 L3.0458,17.0775 C3.0458,17.8485 2.4208,18.4735 1.6498,18.4735" id="Mask"></path>
                <path d="M8.0155,18.4735 L7.7615,18.4735 C6.9935,18.4735 6.3655,17.8455 6.3655,17.0775 L6.3655,2.3955 C6.3655,1.6275 6.9935,0.9995 7.7615,0.9995 L8.0155,0.9995 C8.7835,0.9995 9.4115,1.6275 9.4115,2.3955 L9.4115,17.0775 C9.4115,17.8455 8.7835,18.4735 8.0155,18.4735" id="Fill-4"></path>
                <path d="M20.747,18.4735 L20.493,18.4735 C19.725,18.4735 19.097,17.8455 19.097,17.0775 L19.097,2.3955 C19.097,1.6275 19.725,0.9995 20.493,0.9995 L20.747,0.9995 C21.515,0.9995 22.143,1.6275 22.143,2.3955 L22.143,17.0775 C22.143,17.8455 21.515,18.4735 20.747,18.4735" id="Fill-7"></path>
                <path d="M14.3812,18.4735 L14.1272,18.4735 C13.3592,18.4735 12.7312,17.8455 12.7312,17.0775 L12.7312,6.5385 C12.7312,5.7715 13.3592,5.1425 14.1272,5.1425 L14.3812,5.1425 C15.1492,5.1425 15.7772,5.7715 15.7772,6.5385 L15.7772,17.0775 C15.7772,17.8455 15.1492,18.4735 14.3812,18.4735" id="Fill-10"></path>
            </g>
        </g>
    </g>
</svg>