<?xml version="1.0" encoding="UTF-8"?>
<svg width="15px" height="15px" viewBox="0 0 15 15" version="1.1" xmlns="http://www.w3.org/2000/svg" xmlns:xlink="http://www.w3.org/1999/xlink">
    <!-- Generator: Sketch 48.2 (47327) - http://www.bohemiancoding.com/sketch -->
    <title>search</title>
    <desc>Created with Sketch.</desc>
    <defs></defs>
    <g id="Symbols" stroke="none" stroke-width="1" fill="none" fill-rule="evenodd">
        <g id="search" fill="#FFFFFF">
            <path d="M1.99955565,6.74954164 C1.99955565,4.1327296 4.13241502,2.00011112 6.74850033,2.00011112 C9.38041546,2.00011112 11.4966119,4.1327296 11.4966119,6.74954164 C11.4966119,9.36635369 9.3637525,11.4998055 6.74850033,11.4998055 C4.13241502,11.4998055 1.99955565,9.36635369 1.99955565,6.74954164 M14.7125639,13.2999056 L12.1797934,10.7664315 C13.0129416,9.63303517 13.4961675,8.24962498 13.4961675,6.74954164 C13.4961675,3.03350186 10.4635081,0 6.74850033,0 C3.03265941,0 0,3.01683427 0,6.74954164 C0,10.4830824 3.03265941,13.5165843 6.74850033,13.5165843 C8.24816707,13.5165843 9.64702288,13.0165565 10.7642746,12.1831768 L13.296212,14.6999833 C13.4795046,14.8999944 13.746112,15 13.9960564,15 C14.2460009,15 14.5126083,14.8999944 14.7125639,14.7166509 C15.095812,14.3166287 15.095812,13.6832602 14.7125639,13.2999056" id="Fill-1"></path>
        </g>
    </g>
</svg>