<?xml version="1.0" encoding="UTF-8"?>
<svg width="21px" height="19px" viewBox="0 0 21 19" version="1.1" xmlns="http://www.w3.org/2000/svg" xmlns:xlink="http://www.w3.org/1999/xlink">
    <!-- Generator: Sketch 48.2 (47327) - http://www.bohemiancoding.com/sketch -->
    <title>sent</title>
    <desc>Created with Sketch.</desc>
    <defs></defs>
    <g id="Symbols" stroke="none" stroke-width="1" fill="none" fill-rule="evenodd">
        <g id="sent" fill="#FFFFFF" fill-rule="nonzero" stroke="#FFFFFF">
            <path d="M0.0108433705,5.46313807 C-0.0604652636,6.03360714 0.224769273,6.60407621 0.723929711,6.88931075 L6.89212656,10.3477795 L8.42526219,17.264717 C8.56787946,17.8351861 8.99573127,18.2630379 9.60185466,18.3700008 C9.67316329,18.3700008 9.74447192,18.3700008 9.81578056,18.3700008 C10.314941,18.3700008 10.7784471,18.1204206 11.0280273,17.6569145 L20.1555325,2.14728658 C20.440767,1.64812614 20.4051127,1.04200275 20.0842239,0.578496632 C19.7276807,0.114990511 19.1572116,-0.0989353917 18.5867426,0.0436818765 L1.1161272,4.28654561 C0.510003809,4.39350856 0.117806322,4.85701468 0.0108433705,5.46313807 Z M9.81578056,16.9438282 L8.31829924,10.1695079 L17.9806192,3.00299019 L9.81578056,16.9438282 Z M1.43701605,5.64140965 L17.1249156,1.82639773 L7.49824995,9.02856977 L1.43701605,5.64140965 C1.43701605,5.64140965 1.43701605,5.64140965 1.43701605,5.64140965 Z" id="Shape"></path>
        </g>
    </g>
</svg>